P3
5 5
255
255 58 58
255 58 58
255 255 255
255 255 255
143 122 122
255 255 255
255 255 255
255 255 255
255 255 255
143 122 122
255 255 255
198 91 91
198 91 91
255 255 255
143 122 122
255 255 255
198 91 91
198 91 91
255 255 255
143 122 122
255 255 255
198 91 91
198 91 91
255 255 255
255 255 255
