P3
5 5
255
255 228 228
255 228 228
255 228 228
255 228 228
143 122 122
255 228 228
255 228 228
255 228 228
255 228 228
143 122 122
255 228 228
198 91 91
198 91 91
255 228 228
143 122 122
255 228 228
198 91 91
198 91 91
255 228 228
143 122 122
255 228 228
198 91 91
198 91 91
255 228 228
255 228 228
