P3
10 10
255
127 245 89
127 245 89
127 245 89
127 245 89
127 245 89
127 245 89
127 245 89
127 245 89
127 245 89
127 245 89
127 245 89
127 245 89
127 245 89
127 245 89
127 245 89
127 245 89
127 245 89
127 245 89
127 245 89
127 245 89
127 245 89
127 245 89
127 245 89
79 201 116
79 201 116
79 201 116
127 245 89
79 201 116
79 201 116
127 245 89
127 245 89
127 245 89
127 245 89
79 201 116
79 201 116
79 201 116
79 201 116
79 201 116
79 201 116
127 245 89
127 245 89
79 201 116
79 201 116
79 201 116
79 201 116
79 201 116
79 201 116
79 201 116
127 245 89
127 245 89
127 245 89
79 201 116
79 201 116
79 201 116
79 201 116
79 201 116
79 201 116
79 201 116
127 245 89
127 245 89
127 245 89
127 245 89
79 201 116
79 201 116
79 201 116
79 201 116
79 201 116
79 201 116
127 245 89
127 245 89
127 245 89
127 245 89
127 245 89
79 201 116
79 201 116
79 201 116
79 201 116
79 201 116
127 245 89
127 245 89
127 245 89
127 245 89
127 245 89
79 201 116
79 201 116
79 201 116
79 201 116
127 245 89
127 245 89
127 245 89
127 245 89
127 245 89
127 245 89
127 245 89
127 245 89
127 245 89
127 245 89
127 245 89
127 245 89
127 245 89
