P3
64 64
255
99 99 99 176 176 176 27 27 27 12 12 12 147 147 147 147 147 147 12 12 12 27 27 27 176 176 176 102 102 102 12 12 12 57 57 57 191 191 191 57 57 57 12 12 12 102 102 102 176 176 176 27 27 27 12 12 12 147 147 147 147 147 147 12 12 12 27 27 27 176 176 176 102 102 102 12 12 12 57 57 57 191 191 191 57 57 57 12 12 12 102 102 102 176 176 176 27 27 27 12 12 12 147 147 147 147 147 147 12 12 12 27 27 27 176 176 176 102 102 102 12 12 12 57 57 57 191 191 191 57 57 57 12 12 12 102 102 102 176 176 176 27 27 27 12 12 12 147 147 147 147 147 147 12 12 12 27 27 27 176 176 176 102 102 102 12 12 12 57 57 57 191 191 191 57 57 57 12 12 12 102 102 102 176 176 176 27 27 27 9 9 9 
176 176 176 61 61 61 16 16 16 166 166 166 210 210 210 31 31 31 31 31 31 210 210 210 166 166 166 16 16 16 61 61 61 240 240 240 106 106 106 16 16 16 106 106 106 240 240 240 61 61 61 16 16 16 166 166 166 210 210 210 31 31 31 31 31 31 210 210 210 166 166 166 16 16 16 61 61 61 240 240 240 106 106 106 16 16 16 106 106 106 240 240 240 61 61 61 16 16 16 166 166 166 210 210 210 31 31 31 31 31 31 210 210 210 166 166 166 16 16 16 61 61 61 240 240 240 106 106 106 16 16 16 106 106 106 240 240 240 61 61 61 16 16 16 166 166 166 210 210 210 31 31 31 31 31 31 210 210 210 166 166 166 16 16 16 61 61 61 240 240 240 106 106 106 16 16 16 106 106 106 240 240 240 61 61 61 16 16 16 102 102 102 
27 27 27 16 16 16 166 166 166 210 210 210 31 31 31 31 31 31 210 210 210 166 166 166 16 16 16 61 61 61 240 240 240 106 106 106 16 16 16 106 106 106 240 240 240 61 61 61 16 16 16 166 166 166 210 210 210 31 31 31 31 31 31 210 210 210 166 166 166 16 16 16 61 61 61 240 240 240 106 106 106 16 16 16 106 106 106 240 240 240 61 61 61 16 16 16 166 166 166 210 210 210 31 31 31 31 31 31 210 210 210 166 166 166 16 16 16 61 61 61 240 240 240 106 106 106 16 16 16 106 106 106 240 240 240 61 61 61 16 16 16 166 166 166 210 210 210 31 31 31 31 31 31 210 210 210 166 166 166 16 16 16 61 61 61 240 240 240 106 106 106 16 16 16 106 106 106 240 240 240 61 61 61 16 16 16 166 166 166 176 176 176 
12 12 12 166 166 166 210 210 210 31 31 31 31 31 31 210 210 210 166 166 166 16 16 16 61 61 61 240 240 240 106 106 106 16 16 16 106 106 106 240 240 240 61 61 61 16 16 16 166 166 166 210 210 210 31 31 31 31 31 31 210 210 210 166 166 166 16 16 16 61 61 61 240 240 240 106 106 106 16 16 16 106 106 106 240 240 240 61 61 61 16 16 16 166 166 166 210 210 210 31 31 31 31 31 31 210 210 210 166 166 166 16 16 16 61 61 61 240 240 240 106 106 106 16 16 16 106 106 106 240 240 240 61 61 61 16 16 16 166 166 166 210 210 210 31 31 31 31 31 31 210 210 210 166 166 166 16 16 16 61 61 61 240 240 240 106 106 106 16 16 16 106 106 106 240 240 240 61 61 61 16 16 16 166 166 166 210 210 210 27 27 27 
147 147 147 210 210 210 31 31 31 31 31 31 210 210 210 166 166 166 16 16 16 61 61 61 240 240 240 106 106 106 16 16 16 106 106 106 240 240 240 61 61 61 16 16 16 166 166 166 210 210 210 31 31 31 31 31 31 210 210 210 166 166 166 16 16 16 61 61 61 240 240 240 106 106 106 16 16 16 106 106 106 240 240 240 61 61 61 16 16 16 166 166 166 210 210 210 31 31 31 31 31 31 210 210 210 166 166 166 16 16 16 61 61 61 240 240 240 106 106 106 16 16 16 106 106 106 240 240 240 61 61 61 16 16 16 166 166 166 210 210 210 31 31 31 31 31 31 210 210 210 166 166 166 16 16 16 61 61 61 240 240 240 106 106 106 16 16 16 106 106 106 240 240 240 61 61 61 16 16 16 166 166 166 210 210 210 31 31 31 12 12 12 
147 147 147 31 31 31 31 31 31 210 210 210 166 166 166 16 16 16 61 61 61 240 240 240 106 106 106 16 16 16 106 106 106 240 240 240 61 61 61 16 16 16 166 166 166 210 210 210 31 31 31 31 31 31 210 210 210 166 166 166 16 16 16 61 61 61 240 240 240 106 106 106 16 16 16 106 106 106 240 240 240 61 61 61 16 16 16 166 166 166 210 210 210 31 31 31 31 31 31 210 210 210 166 166 166 16 16 16 61 61 61 240 240 240 106 106 106 16 16 16 106 106 106 240 240 240 61 61 61 16 16 16 166 166 166 210 210 210 31 31 31 31 31 31 210 210 210 166 166 166 16 16 16 61 61 61 240 240 240 106 106 106 16 16 16 106 106 106 240 240 240 61 61 61 16 16 16 166 166 166 210 210 210 31 31 31 31 31 31 147 147 147 
12 12 12 31 31 31 210 210 210 166 166 166 16 16 16 61 61 61 240 240 240 106 106 106 16 16 16 106 106 106 240 240 240 61 61 61 16 16 16 166 166 166 210 210 210 31 31 31 31 31 31 210 210 210 166 166 166 16 16 16 61 61 61 240 240 240 106 106 106 16 16 16 106 106 106 240 240 240 61 61 61 16 16 16 166 166 166 210 210 210 31 31 31 31 31 31 210 210 210 166 166 166 16 16 16 61 61 61 240 240 240 106 106 106 16 16 16 106 106 106 240 240 240 61 61 61 16 16 16 166 166 166 210 210 210 31 31 31 31 31 31 210 210 210 166 166 166 16 16 16 61 61 61 240 240 240 106 106 106 16 16 16 106 106 106 240 240 240 61 61 61 16 16 16 166 166 166 210 210 210 31 31 31 31 31 31 210 210 210 147 147 147 
27 27 27 210 210 210 166 166 166 16 16 16 61 61 61 240 240 240 106 106 106 16 16 16 106 106 106 240 240 240 61 61 61 16 16 16 166 166 166 210 210 210 31 31 31 31 31 31 210 210 210 166 166 166 16 16 16 61 61 61 240 240 240 106 106 106 16 16 16 106 106 106 240 240 240 61 61 61 16 16 16 166 166 166 210 210 210 31 31 31 31 31 31 210 210 210 166 166 166 16 16 16 61 61 61 240 240 240 106 106 106 16 16 16 106 106 106 240 240 240 61 61 61 16 16 16 166 166 166 210 210 210 31 31 31 31 31 31 210 210 210 166 166 166 16 16 16 61 61 61 240 240 240 106 106 106 16 16 16 106 106 106 240 240 240 61 61 61 16 16 16 166 166 166 210 210 210 31 31 31 31 31 31 210 210 210 166 166 166 12 12 12 
176 176 176 166 166 166 16 16 16 61 61 61 240 240 240 106 106 106 16 16 16 106 106 106 240 240 240 61 61 61 16 16 16 166 166 166 210 210 210 31 31 31 31 31 31 210 210 210 166 166 166 16 16 16 61 61 61 240 240 240 106 106 106 16 16 16 106 106 106 240 240 240 61 61 61 16 16 16 166 166 166 210 210 210 31 31 31 31 31 31 210 210 210 166 166 166 16 16 16 61 61 61 240 240 240 106 106 106 16 16 16 106 106 106 240 240 240 61 61 61 16 16 16 166 166 166 210 210 210 31 31 31 31 31 31 210 210 210 166 166 166 16 16 16 61 61 61 240 240 240 106 106 106 16 16 16 106 106 106 240 240 240 61 61 61 16 16 16 166 166 166 210 210 210 31 31 31 31 31 31 210 210 210 166 166 166 16 16 16 27 27 27 
102 102 102 16 16 16 61 61 61 240 240 240 106 106 106 16 16 16 106 106 106 240 240 240 61 61 61 16 16 16 166 166 166 210 210 210 31 31 31 31 31 31 210 210 210 166 166 166 16 16 16 61 61 61 240 240 240 106 106 106 16 16 16 106 106 106 240 240 240 61 61 61 16 16 16 166 166 166 210 210 210 31 31 31 31 31 31 210 210 210 166 166 166 16 16 16 61 61 61 240 240 240 106 106 106 16 16 16 106 106 106 240 240 240 61 61 61 16 16 16 166 166 166 210 210 210 31 31 31 31 31 31 210 210 210 166 166 166 16 16 16 61 61 61 240 240 240 106 106 106 16 16 16 106 106 106 240 240 240 61 61 61 16 16 16 166 166 166 210 210 210 31 31 31 31 31 31 210 210 210 166 166 166 16 16 16 61 61 61 176 176 176 
12 12 12 61 61 61 240 240 240 106 106 106 16 16 16 106 106 106 240 240 240 61 61 61 16 16 16 166 166 166 210 210 210 31 31 31 31 31 31 210 210 210 166 166 166 16 16 16 61 61 61 240 240 240 106 106 106 16 16 16 106 106 106 240 240 240 61 61 61 16 16 16 166 166 166 210 210 210 31 31 31 31 31 31 210 210 210 166 166 166 16 16 16 61 61 61 240 240 240 106 106 106 16 16 16 106 106 106 240 240 240 61 61 61 16 16 16 166 166 166 210 210 210 31 31 31 31 31 31 210 210 210 166 166 166 16 16 16 61 61 61 240 240 240 106 106 106 16 16 16 106 106 106 240 240 240 61 61 61 16 16 16 166 166 166 210 210 210 31 31 31 31 31 31 210 210 210 166 166 166 16 16 16 61 61 61 240 240 240 102 102 102 
57 57 57 240 240 240 106 106 106 16 16 16 106 106 106 240 240 240 61 61 61 16 16 16 166 166 166 210 210 210 31 31 31 31 31 31 210 210 210 166 166 166 16 16 16 61 61 61 240 240 240 106 106 106 16 16 16 106 106 106 240 240 240 61 61 61 16 16 16 166 166 166 210 210 210 31 31 31 31 31 31 210 210 210 166 166 166 16 16 16 61 61 61 240 240 240 106 106 106 16 16 16 106 106 106 240 240 240 61 61 61 16 16 16 166 166 166 210 210 210 31 31 31 31 31 31 210 210 210 166 166 166 16 16 16 61 61 61 240 240 240 106 106 106 16 16 16 106 106 106 240 240 240 61 61 61 16 16 16 166 166 166 210 210 210 31 31 31 31 31 31 210 210 210 166 166 166 16 16 16 61 61 61 240 240 240 106 106 106 12 12 12 
191 191 191 106 106 106 16 16 16 106 106 106 240 240 240 61 61 61 16 16 16 166 166 166 210 210 210 31 31 31 31 31 31 210 210 210 166 166 166 16 16 16 61 61 61 240 240 240 106 106 106 16 16 16 106 106 106 240 240 240 61 61 61 16 16 16 166 166 166 210 210 210 31 31 31 31 31 31 210 210 210 166 166 166 16 16 16 61 61 61 240 240 240 106 106 106 16 16 16 106 106 106 240 240 240 61 61 61 16 16 16 166 166 166 210 210 210 31 31 31 31 31 31 210 210 210 166 166 166 16 16 16 61 61 61 240 240 240 106 106 106 16 16 16 106 106 106 240 240 240 61 61 61 16 16 16 166 166 166 210 210 210 31 31 31 31 31 31 210 210 210 166 166 166 16 16 16 61 61 61 240 240 240 106 106 106 16 16 16 57 57 57 
57 57 57 16 16 16 106 106 106 240 240 240 61 61 61 16 16 16 166 166 166 210 210 210 31 31 31 31 31 31 210 210 210 166 166 166 16 16 16 61 61 61 240 240 240 106 106 106 16 16 16 106 106 106 240 240 240 61 61 61 16 16 16 166 166 166 210 210 210 31 31 31 31 31 31 210 210 210 166 166 166 16 16 16 61 61 61 240 240 240 106 106 106 16 16 16 106 106 106 240 240 240 61 61 61 16 16 16 166 166 166 210 210 210 31 31 31 31 31 31 210 210 210 166 166 166 16 16 16 61 61 61 240 240 240 106 106 106 16 16 16 106 106 106 240 240 240 61 61 61 16 16 16 166 166 166 210 210 210 31 31 31 31 31 31 210 210 210 166 166 166 16 16 16 61 61 61 240 240 240 106 106 106 16 16 16 106 106 106 191 191 191 
12 12 12 106 106 106 240 240 240 61 61 61 16 16 16 166 166 166 210 210 210 31 31 31 31 31 31 210 210 210 166 166 166 16 16 16 61 61 61 240 240 240 106 106 106 16 16 16 106 106 106 240 240 240 61 61 61 16 16 16 166 166 166 210 210 210 31 31 31 31 31 31 210 210 210 166 166 166 16 16 16 61 61 61 240 240 240 106 106 106 16 16 16 106 106 106 240 240 240 61 61 61 16 16 16 166 166 166 210 210 210 31 31 31 31 31 31 210 210 210 166 166 166 16 16 16 61 61 61 240 240 240 106 106 106 16 16 16 106 106 106 240 240 240 61 61 61 16 16 16 166 166 166 210 210 210 31 31 31 31 31 31 210 210 210 166 166 166 16 16 16 61 61 61 240 240 240 106 106 106 16 16 16 106 106 106 240 240 240 57 57 57 
102 102 102 240 240 240 61 61 61 16 16 16 166 166 166 210 210 210 31 31 31 31 31 31 210 210 210 166 166 166 16 16 16 61 61 61 240 240 240 106 106 106 16 16 16 106 106 106 240 240 240 61 61 61 16 16 16 166 166 166 210 210 210 31 31 31 31 31 31 210 210 210 166 166 166 16 16 16 61 61 61 240 240 240 106 106 106 16 16 16 106 106 106 240 240 240 61 61 61 16 16 16 166 166 166 210 210 210 31 31 31 31 31 31 210 210 210 166 166 166 16 16 16 61 61 61 240 240 240 106 106 106 16 16 16 106 106 106 240 240 240 61 61 61 16 16 16 166 166 166 210 210 210 31 31 31 31 31 31 210 210 210 166 166 166 16 16 16 61 61 61 240 240 240 106 106 106 16 16 16 106 106 106 240 240 240 61 61 61 12 12 12 
176 176 176 61 61 61 16 16 16 166 166 166 210 210 210 31 31 31 31 31 31 210 210 210 166 166 166 16 16 16 61 61 61 240 240 240 106 106 106 16 16 16 106 106 106 240 240 240 61 61 61 16 16 16 166 166 166 210 210 210 31 31 31 31 31 31 210 210 210 166 166 166 16 16 16 61 61 61 240 240 240 106 106 106 16 16 16 106 106 106 240 240 240 61 61 61 16 16 16 166 166 166 210 210 210 31 31 31 31 31 31 210 210 210 166 166 166 16 16 16 61 61 61 240 240 240 106 106 106 16 16 16 106 106 106 240 240 240 61 61 61 16 16 16 166 166 166 210 210 210 31 31 31 31 31 31 210 210 210 166 166 166 16 16 16 61 61 61 240 240 240 106 106 106 16 16 16 106 106 106 240 240 240 61 61 61 16 16 16 102 102 102 
27 27 27 16 16 16 166 166 166 210 210 210 31 31 31 31 31 31 210 210 210 166 166 166 16 16 16 61 61 61 240 240 240 106 106 106 16 16 16 106 106 106 240 240 240 61 61 61 16 16 16 166 166 166 210 210 210 31 31 31 31 31 31 210 210 210 166 166 166 16 16 16 61 61 61 240 240 240 106 106 106 16 16 16 106 106 106 240 240 240 61 61 61 16 16 16 166 166 166 210 210 210 31 31 31 31 31 31 210 210 210 166 166 166 16 16 16 61 61 61 240 240 240 106 106 106 16 16 16 106 106 106 240 240 240 61 61 61 16 16 16 166 166 166 210 210 210 31 31 31 31 31 31 210 210 210 166 166 166 16 16 16 61 61 61 240 240 240 106 106 106 16 16 16 106 106 106 240 240 240 61 61 61 16 16 16 166 166 166 176 176 176 
12 12 12 166 166 166 210 210 210 31 31 31 31 31 31 210 210 210 166 166 166 16 16 16 61 61 61 240 240 240 106 106 106 16 16 16 106 106 106 240 240 240 61 61 61 16 16 16 166 166 166 210 210 210 31 31 31 31 31 31 210 210 210 166 166 166 16 16 16 61 61 61 240 240 240 106 106 106 16 16 16 106 106 106 240 240 240 61 61 61 16 16 16 166 166 166 210 210 210 31 31 31 31 31 31 210 210 210 166 166 166 16 16 16 61 61 61 240 240 240 106 106 106 16 16 16 106 106 106 240 240 240 61 61 61 16 16 16 166 166 166 210 210 210 31 31 31 31 31 31 210 210 210 166 166 166 16 16 16 61 61 61 240 240 240 106 106 106 16 16 16 106 106 106 240 240 240 61 61 61 16 16 16 166 166 166 210 210 210 27 27 27 
147 147 147 210 210 210 31 31 31 31 31 31 210 210 210 166 166 166 16 16 16 61 61 61 240 240 240 106 106 106 16 16 16 106 106 106 240 240 240 61 61 61 16 16 16 166 166 166 210 210 210 31 31 31 31 31 31 210 210 210 166 166 166 16 16 16 61 61 61 240 240 240 106 106 106 16 16 16 106 106 106 240 240 240 61 61 61 16 16 16 166 166 166 210 210 210 31 31 31 31 31 31 210 210 210 166 166 166 16 16 16 61 61 61 240 240 240 106 106 106 16 16 16 106 106 106 240 240 240 61 61 61 16 16 16 166 166 166 210 210 210 31 31 31 31 31 31 210 210 210 166 166 166 16 16 16 61 61 61 240 240 240 106 106 106 16 16 16 106 106 106 240 240 240 61 61 61 16 16 16 166 166 166 210 210 210 31 31 31 12 12 12 
147 147 147 31 31 31 31 31 31 210 210 210 166 166 166 16 16 16 61 61 61 240 240 240 106 106 106 16 16 16 106 106 106 240 240 240 61 61 61 16 16 16 166 166 166 210 210 210 31 31 31 31 31 31 210 210 210 166 166 166 16 16 16 61 61 61 240 240 240 106 106 106 16 16 16 106 106 106 240 240 240 61 61 61 16 16 16 166 166 166 210 210 210 31 31 31 31 31 31 210 210 210 166 166 166 16 16 16 61 61 61 240 240 240 106 106 106 16 16 16 106 106 106 240 240 240 61 61 61 16 16 16 166 166 166 210 210 210 31 31 31 31 31 31 210 210 210 166 166 166 16 16 16 61 61 61 240 240 240 106 106 106 16 16 16 106 106 106 240 240 240 61 61 61 16 16 16 166 166 166 210 210 210 31 31 31 31 31 31 147 147 147 
12 12 12 31 31 31 210 210 210 166 166 166 16 16 16 61 61 61 240 240 240 106 106 106 16 16 16 106 106 106 240 240 240 61 61 61 16 16 16 166 166 166 210 210 210 31 31 31 31 31 31 210 210 210 166 166 166 16 16 16 61 61 61 240 240 240 106 106 106 16 16 16 106 106 106 240 240 240 61 61 61 16 16 16 166 166 166 210 210 210 31 31 31 31 31 31 210 210 210 166 166 166 16 16 16 61 61 61 240 240 240 106 106 106 16 16 16 106 106 106 240 240 240 61 61 61 16 16 16 166 166 166 210 210 210 31 31 31 31 31 31 210 210 210 166 166 166 16 16 16 61 61 61 240 240 240 106 106 106 16 16 16 106 106 106 240 240 240 61 61 61 16 16 16 166 166 166 210 210 210 31 31 31 31 31 31 210 210 210 147 147 147 
27 27 27 210 210 210 166 166 166 16 16 16 61 61 61 240 240 240 106 106 106 16 16 16 106 106 106 240 240 240 61 61 61 16 16 16 166 166 166 210 210 210 31 31 31 31 31 31 210 210 210 166 166 166 16 16 16 61 61 61 240 240 240 106 106 106 16 16 16 106 106 106 240 240 240 61 61 61 16 16 16 166 166 166 210 210 210 31 31 31 31 31 31 210 210 210 166 166 166 16 16 16 61 61 61 240 240 240 106 106 106 16 16 16 106 106 106 240 240 240 61 61 61 16 16 16 166 166 166 210 210 210 31 31 31 31 31 31 210 210 210 166 166 166 16 16 16 61 61 61 240 240 240 106 106 106 16 16 16 106 106 106 240 240 240 61 61 61 16 16 16 166 166 166 210 210 210 31 31 31 31 31 31 210 210 210 166 166 166 12 12 12 
176 176 176 166 166 166 16 16 16 61 61 61 240 240 240 106 106 106 16 16 16 106 106 106 240 240 240 61 61 61 16 16 16 166 166 166 210 210 210 31 31 31 31 31 31 210 210 210 166 166 166 16 16 16 61 61 61 240 240 240 106 106 106 16 16 16 106 106 106 240 240 240 61 61 61 16 16 16 166 166 166 210 210 210 31 31 31 31 31 31 210 210 210 166 166 166 16 16 16 61 61 61 240 240 240 106 106 106 16 16 16 106 106 106 240 240 240 61 61 61 16 16 16 166 166 166 210 210 210 31 31 31 31 31 31 210 210 210 166 166 166 16 16 16 61 61 61 240 240 240 106 106 106 16 16 16 106 106 106 240 240 240 61 61 61 16 16 16 166 166 166 210 210 210 31 31 31 31 31 31 210 210 210 166 166 166 16 16 16 27 27 27 
102 102 102 16 16 16 61 61 61 240 240 240 106 106 106 16 16 16 106 106 106 240 240 240 61 61 61 16 16 16 166 166 166 210 210 210 31 31 31 31 31 31 210 210 210 166 166 166 16 16 16 61 61 61 240 240 240 106 106 106 16 16 16 106 106 106 240 240 240 61 61 61 16 16 16 166 166 166 210 210 210 31 31 31 31 31 31 210 210 210 166 166 166 16 16 16 61 61 61 240 240 240 106 106 106 16 16 16 106 106 106 240 240 240 61 61 61 16 16 16 166 166 166 210 210 210 31 31 31 31 31 31 210 210 210 166 166 166 16 16 16 61 61 61 240 240 240 106 106 106 16 16 16 106 106 106 240 240 240 61 61 61 16 16 16 166 166 166 210 210 210 31 31 31 31 31 31 210 210 210 166 166 166 16 16 16 61 61 61 176 176 176 
12 12 12 61 61 61 240 240 240 106 106 106 16 16 16 106 106 106 240 240 240 61 61 61 16 16 16 166 166 166 210 210 210 31 31 31 31 31 31 210 210 210 166 166 166 16 16 16 61 61 61 240 240 240 106 106 106 16 16 16 106 106 106 240 240 240 61 61 61 16 16 16 166 166 166 210 210 210 31 31 31 31 31 31 210 210 210 166 166 166 16 16 16 61 61 61 240 240 240 106 106 106 16 16 16 106 106 106 240 240 240 61 61 61 16 16 16 166 166 166 210 210 210 31 31 31 31 31 31 210 210 210 166 166 166 16 16 16 61 61 61 240 240 240 106 106 106 16 16 16 106 106 106 240 240 240 61 61 61 16 16 16 166 166 166 210 210 210 31 31 31 31 31 31 210 210 210 166 166 166 16 16 16 61 61 61 240 240 240 102 102 102 
57 57 57 240 240 240 106 106 106 16 16 16 106 106 106 240 240 240 61 61 61 16 16 16 166 166 166 210 210 210 31 31 31 31 31 31 210 210 210 166 166 166 16 16 16 61 61 61 240 240 240 106 106 106 16 16 16 106 106 106 240 240 240 61 61 61 16 16 16 166 166 166 210 210 210 31 31 31 31 31 31 210 210 210 166 166 166 16 16 16 61 61 61 240 240 240 106 106 106 16 16 16 106 106 106 240 240 240 61 61 61 16 16 16 166 166 166 210 210 210 31 31 31 31 31 31 210 210 210 166 166 166 16 16 16 61 61 61 240 240 240 106 106 106 16 16 16 106 106 106 240 240 240 61 61 61 16 16 16 166 166 166 210 210 210 31 31 31 31 31 31 210 210 210 166 166 166 16 16 16 61 61 61 240 240 240 106 106 106 12 12 12 
191 191 191 106 106 106 16 16 16 106 106 106 240 240 240 61 61 61 16 16 16 166 166 166 210 210 210 31 31 31 31 31 31 210 210 210 166 166 166 16 16 16 61 61 61 240 240 240 106 106 106 16 16 16 106 106 106 240 240 240 61 61 61 16 16 16 166 166 166 210 210 210 31 31 31 31 31 31 210 210 210 166 166 166 16 16 16 61 61 61 240 240 240 106 106 106 16 16 16 106 106 106 240 240 240 61 61 61 16 16 16 166 166 166 210 210 210 31 31 31 31 31 31 210 210 210 166 166 166 16 16 16 61 61 61 240 240 240 106 106 106 16 16 16 106 106 106 240 240 240 61 61 61 16 16 16 166 166 166 210 210 210 31 31 31 31 31 31 210 210 210 166 166 166 16 16 16 61 61 61 240 240 240 106 106 106 16 16 16 57 57 57 
57 57 57 16 16 16 106 106 106 240 240 240 61 61 61 16 16 16 166 166 166 210 210 210 31 31 31 31 31 31 210 210 210 166 166 166 16 16 16 61 61 61 240 240 240 106 106 106 16 16 16 106 106 106 240 240 240 61 61 61 16 16 16 166 166 166 210 210 210 31 31 31 31 31 31 210 210 210 166 166 166 16 16 16 61 61 61 240 240 240 106 106 106 16 16 16 106 106 106 240 240 240 61 61 61 16 16 16 166 166 166 210 210 210 31 31 31 31 31 31 210 210 210 166 166 166 16 16 16 61 61 61 240 240 240 106 106 106 16 16 16 106 106 106 240 240 240 61 61 61 16 16 16 166 166 166 210 210 210 31 31 31 31 31 31 210 210 210 166 166 166 16 16 16 61 61 61 240 240 240 106 106 106 16 16 16 106 106 106 191 191 191 
12 12 12 106 106 106 240 240 240 61 61 61 16 16 16 166 166 166 210 210 210 31 31 31 31 31 31 210 210 210 166 166 166 16 16 16 61 61 61 240 240 240 106 106 106 16 16 16 106 106 106 240 240 240 61 61 61 16 16 16 166 166 166 210 210 210 31 31 31 31 31 31 210 210 210 166 166 166 16 16 16 61 61 61 240 240 240 106 106 106 16 16 16 106 106 106 240 240 240 61 61 61 16 16 16 166 166 166 210 210 210 31 31 31 31 31 31 210 210 210 166 166 166 16 16 16 61 61 61 240 240 240 106 106 106 16 16 16 106 106 106 240 240 240 61 61 61 16 16 16 166 166 166 210 210 210 31 31 31 31 31 31 210 210 210 166 166 166 16 16 16 61 61 61 240 240 240 106 106 106 16 16 16 106 106 106 240 240 240 57 57 57 
102 102 102 240 240 240 61 61 61 16 16 16 166 166 166 210 210 210 31 31 31 31 31 31 210 210 210 166 166 166 16 16 16 61 61 61 240 240 240 106 106 106 16 16 16 106 106 106 240 240 240 61 61 61 16 16 16 166 166 166 210 210 210 31 31 31 31 31 31 210 210 210 166 166 166 16 16 16 61 61 61 240 240 240 106 106 106 16 16 16 106 106 106 240 240 240 61 61 61 16 16 16 166 166 166 210 210 210 31 31 31 31 31 31 210 210 210 166 166 166 16 16 16 61 61 61 240 240 240 106 106 106 16 16 16 106 106 106 240 240 240 61 61 61 16 16 16 166 166 166 210 210 210 31 31 31 31 31 31 210 210 210 166 166 166 16 16 16 61 61 61 240 240 240 106 106 106 16 16 16 106 106 106 240 240 240 61 61 61 12 12 12 
176 176 176 61 61 61 16 16 16 166 166 166 210 210 210 31 31 31 31 31 31 210 210 210 166 166 166 16 16 16 61 61 61 240 240 240 106 106 106 16 16 16 106 106 106 240 240 240 61 61 61 16 16 16 166 166 166 210 210 210 31 31 31 31 31 31 210 210 210 166 166 166 16 16 16 61 61 61 240 240 240 106 106 106 16 16 16 106 106 106 240 240 240 61 61 61 16 16 16 166 166 166 210 210 210 31 31 31 31 31 31 210 210 210 166 166 166 16 16 16 61 61 61 240 240 240 106 106 106 16 16 16 106 106 106 240 240 240 61 61 61 16 16 16 166 166 166 210 210 210 31 31 31 31 31 31 210 210 210 166 166 166 16 16 16 61 61 61 240 240 240 106 106 106 16 16 16 106 106 106 240 240 240 61 61 61 16 16 16 102 102 102 
27 27 27 16 16 16 166 166 166 210 210 210 31 31 31 31 31 31 210 210 210 166 166 166 16 16 16 61 61 61 240 240 240 106 106 106 16 16 16 106 106 106 240 240 240 61 61 61 16 16 16 166 166 166 210 210 210 31 31 31 31 31 31 210 210 210 166 166 166 16 16 16 61 61 61 240 240 240 106 106 106 16 16 16 106 106 106 240 240 240 61 61 61 16 16 16 166 166 166 210 210 210 31 31 31 31 31 31 210 210 210 166 166 166 16 16 16 61 61 61 240 240 240 106 106 106 16 16 16 106 106 106 240 240 240 61 61 61 16 16 16 166 166 166 210 210 210 31 31 31 31 31 31 210 210 210 166 166 166 16 16 16 61 61 61 240 240 240 106 106 106 16 16 16 106 106 106 240 240 240 61 61 61 16 16 16 166 166 166 176 176 176 
12 12 12 166 166 166 210 210 210 31 31 31 31 31 31 210 210 210 166 166 166 16 16 16 61 61 61 240 240 240 106 106 106 16 16 16 106 106 106 240 240 240 61 61 61 16 16 16 166 166 166 210 210 210 31 31 31 31 31 31 210 210 210 166 166 166 16 16 16 61 61 61 240 240 240 106 106 106 16 16 16 106 106 106 240 240 240 61 61 61 16 16 16 166 166 166 210 210 210 31 31 31 31 31 31 210 210 210 166 166 166 16 16 16 61 61 61 240 240 240 106 106 106 16 16 16 106 106 106 240 240 240 61 61 61 16 16 16 166 166 166 210 210 210 31 31 31 31 31 31 210 210 210 166 166 166 16 16 16 61 61 61 240 240 240 106 106 106 16 16 16 106 106 106 240 240 240 61 61 61 16 16 16 166 166 166 210 210 210 27 27 27 
147 147 147 210 210 210 31 31 31 31 31 31 210 210 210 166 166 166 16 16 16 61 61 61 240 240 240 106 106 106 16 16 16 106 106 106 240 240 240 61 61 61 16 16 16 166 166 166 210 210 210 31 31 31 31 31 31 210 210 210 166 166 166 16 16 16 61 61 61 240 240 240 106 106 106 16 16 16 106 106 106 240 240 240 61 61 61 16 16 16 166 166 166 210 210 210 31 31 31 31 31 31 210 210 210 166 166 166 16 16 16 61 61 61 240 240 240 106 106 106 16 16 16 106 106 106 240 240 240 61 61 61 16 16 16 166 166 166 210 210 210 31 31 31 31 31 31 210 210 210 166 166 166 16 16 16 61 61 61 240 240 240 106 106 106 16 16 16 106 106 106 240 240 240 61 61 61 16 16 16 166 166 166 210 210 210 31 31 31 12 12 12 
147 147 147 31 31 31 31 31 31 210 210 210 166 166 166 16 16 16 61 61 61 240 240 240 106 106 106 16 16 16 106 106 106 240 240 240 61 61 61 16 16 16 166 166 166 210 210 210 31 31 31 31 31 31 210 210 210 166 166 166 16 16 16 61 61 61 240 240 240 106 106 106 16 16 16 106 106 106 240 240 240 61 61 61 16 16 16 166 166 166 210 210 210 31 31 31 31 31 31 210 210 210 166 166 166 16 16 16 61 61 61 240 240 240 106 106 106 16 16 16 106 106 106 240 240 240 61 61 61 16 16 16 166 166 166 210 210 210 31 31 31 31 31 31 210 210 210 166 166 166 16 16 16 61 61 61 240 240 240 106 106 106 16 16 16 106 106 106 240 240 240 61 61 61 16 16 16 166 166 166 210 210 210 31 31 31 31 31 31 147 147 147 
12 12 12 31 31 31 210 210 210 166 166 166 16 16 16 61 61 61 240 240 240 106 106 106 16 16 16 106 106 106 240 240 240 61 61 61 16 16 16 166 166 166 210 210 210 31 31 31 31 31 31 210 210 210 166 166 166 16 16 16 61 61 61 240 240 240 106 106 106 16 16 16 106 106 106 240 240 240 61 61 61 16 16 16 166 166 166 210 210 210 31 31 31 31 31 31 210 210 210 166 166 166 16 16 16 61 61 61 240 240 240 106 106 106 16 16 16 106 106 106 240 240 240 61 61 61 16 16 16 166 166 166 210 210 210 31 31 31 31 31 31 210 210 210 166 166 166 16 16 16 61 61 61 240 240 240 106 106 106 16 16 16 106 106 106 240 240 240 61 61 61 16 16 16 166 166 166 210 210 210 31 31 31 31 31 31 210 210 210 147 147 147 
27 27 27 210 210 210 166 166 166 16 16 16 61 61 61 240 240 240 106 106 106 16 16 16 106 106 106 240 240 240 61 61 61 16 16 16 166 166 166 210 210 210 31 31 31 31 31 31 210 210 210 166 166 166 16 16 16 61 61 61 240 240 240 106 106 106 16 16 16 106 106 106 240 240 240 61 61 61 16 16 16 166 166 166 210 210 210 31 31 31 31 31 31 210 210 210 166 166 166 16 16 16 61 61 61 240 240 240 106 106 106 16 16 16 106 106 106 240 240 240 61 61 61 16 16 16 166 166 166 210 210 210 31 31 31 31 31 31 210 210 210 166 166 166 16 16 16 61 61 61 240 240 240 106 106 106 16 16 16 106 106 106 240 240 240 61 61 61 16 16 16 166 166 166 210 210 210 31 31 31 31 31 31 210 210 210 166 166 166 12 12 12 
176 176 176 166 166 166 16 16 16 61 61 61 240 240 240 106 106 106 16 16 16 106 106 106 240 240 240 61 61 61 16 16 16 166 166 166 210 210 210 31 31 31 31 31 31 210 210 210 166 166 166 16 16 16 61 61 61 240 240 240 106 106 106 16 16 16 106 106 106 240 240 240 61 61 61 16 16 16 166 166 166 210 210 210 31 31 31 31 31 31 210 210 210 166 166 166 16 16 16 61 61 61 240 240 240 106 106 106 16 16 16 106 106 106 240 240 240 61 61 61 16 16 16 166 166 166 210 210 210 31 31 31 31 31 31 210 210 210 166 166 166 16 16 16 61 61 61 240 240 240 106 106 106 16 16 16 106 106 106 240 240 240 61 61 61 16 16 16 166 166 166 210 210 210 31 31 31 31 31 31 210 210 210 166 166 166 16 16 16 27 27 27 
102 102 102 16 16 16 61 61 61 240 240 240 106 106 106 16 16 16 106 106 106 240 240 240 61 61 61 16 16 16 166 166 166 210 210 210 31 31 31 31 31 31 210 210 210 166 166 166 16 16 16 61 61 61 240 240 240 106 106 106 16 16 16 106 106 106 240 240 240 61 61 61 16 16 16 166 166 166 210 210 210 31 31 31 31 31 31 210 210 210 166 166 166 16 16 16 61 61 61 240 240 240 106 106 106 16 16 16 106 106 106 240 240 240 61 61 61 16 16 16 166 166 166 210 210 210 31 31 31 31 31 31 210 210 210 166 166 166 16 16 16 61 61 61 240 240 240 106 106 106 16 16 16 106 106 106 240 240 240 61 61 61 16 16 16 166 166 166 210 210 210 31 31 31 31 31 31 210 210 210 166 166 166 16 16 16 61 61 61 176 176 176 
12 12 12 61 61 61 240 240 240 106 106 106 16 16 16 106 106 106 240 240 240 61 61 61 16 16 16 166 166 166 210 210 210 31 31 31 31 31 31 210 210 210 166 166 166 16 16 16 61 61 61 240 240 240 106 106 106 16 16 16 106 106 106 240 240 240 61 61 61 16 16 16 166 166 166 210 210 210 31 31 31 31 31 31 210 210 210 166 166 166 16 16 16 61 61 61 240 240 240 106 106 106 16 16 16 106 106 106 240 240 240 61 61 61 16 16 16 166 166 166 210 210 210 31 31 31 31 31 31 210 210 210 166 166 166 16 16 16 61 61 61 240 240 240 106 106 106 16 16 16 106 106 106 240 240 240 61 61 61 16 16 16 166 166 166 210 210 210 31 31 31 31 31 31 210 210 210 166 166 166 16 16 16 61 61 61 240 240 240 102 102 102 
57 57 57 240 240 240 106 106 106 16 16 16 106 106 106 240 240 240 61 61 61 16 16 16 166 166 166 210 210 210 31 31 31 31 31 31 210 210 210 166 166 166 16 16 16 61 61 61 240 240 240 106 106 106 16 16 16 106 106 106 240 240 240 61 61 61 16 16 16 166 166 166 210 210 210 31 31 31 31 31 31 210 210 210 166 166 166 16 16 16 61 61 61 240 240 240 106 106 106 16 16 16 106 106 106 240 240 240 61 61 61 16 16 16 166 166 166 210 210 210 31 31 31 31 31 31 210 210 210 166 166 166 16 16 16 61 61 61 240 240 240 106 106 106 16 16 16 106 106 106 240 240 240 61 61 61 16 16 16 166 166 166 210 210 210 31 31 31 31 31 31 210 210 210 166 166 166 16 16 16 61 61 61 240 240 240 106 106 106 12 12 12 
191 191 191 106 106 106 16 16 16 106 106 106 240 240 240 61 61 61 16 16 16 166 166 166 210 210 210 31 31 31 31 31 31 210 210 210 166 166 166 16 16 16 61 61 61 240 240 240 106 106 106 16 16 16 106 106 106 240 240 240 61 61 61 16 16 16 166 166 166 210 210 210 31 31 31 31 31 31 210 210 210 166 166 166 16 16 16 61 61 61 240 240 240 106 106 106 16 16 16 106 106 106 240 240 240 61 61 61 16 16 16 166 166 166 210 210 210 31 31 31 31 31 31 210 210 210 166 166 166 16 16 16 61 61 61 240 240 240 106 106 106 16 16 16 106 106 106 240 240 240 61 61 61 16 16 16 166 166 166 210 210 210 31 31 31 31 31 31 210 210 210 166 166 166 16 16 16 61 61 61 240 240 240 106 106 106 16 16 16 57 57 57 
57 57 57 16 16 16 106 106 106 240 240 240 61 61 61 16 16 16 166 166 166 210 210 210 31 31 31 31 31 31 210 210 210 166 166 166 16 16 16 61 61 61 240 240 240 106 106 106 16 16 16 106 106 106 240 240 240 61 61 61 16 16 16 166 166 166 210 210 210 31 31 31 31 31 31 210 210 210 166 166 166 16 16 16 61 61 61 240 240 240 106 106 106 16 16 16 106 106 106 240 240 240 61 61 61 16 16 16 166 166 166 210 210 210 31 31 31 31 31 31 210 210 210 166 166 166 16 16 16 61 61 61 240 240 240 106 106 106 16 16 16 106 106 106 240 240 240 61 61 61 16 16 16 166 166 166 210 210 210 31 31 31 31 31 31 210 210 210 166 166 166 16 16 16 61 61 61 240 240 240 106 106 106 16 16 16 106 106 106 191 191 191 
12 12 12 106 106 106 240 240 240 61 61 61 16 16 16 166 166 166 210 210 210 31 31 31 31 31 31 210 210 210 166 166 166 16 16 16 61 61 61 240 240 240 106 106 106 16 16 16 106 106 106 240 240 240 61 61 61 16 16 16 166 166 166 210 210 210 31 31 31 31 31 31 210 210 210 166 166 166 16 16 16 61 61 61 240 240 240 106 106 106 16 16 16 106 106 106 240 240 240 61 61 61 16 16 16 166 166 166 210 210 210 31 31 31 31 31 31 210 210 210 166 166 166 16 16 16 61 61 61 240 240 240 106 106 106 16 16 16 106 106 106 240 240 240 61 61 61 16 16 16 166 166 166 210 210 210 31 31 31 31 31 31 210 210 210 166 166 166 16 16 16 61 61 61 240 240 240 106 106 106 16 16 16 106 106 106 240 240 240 57 57 57 
102 102 102 240 240 240 61 61 61 16 16 16 166 166 166 210 210 210 31 31 31 31 31 31 210 210 210 166 166 166 16 16 16 61 61 61 240 240 240 106 106 106 16 16 16 106 106 106 240 240 240 61 61 61 16 16 16 166 166 166 210 210 210 31 31 31 31 31 31 210 210 210 166 166 166 16 16 16 61 61 61 240 240 240 106 106 106 16 16 16 106 106 106 240 240 240 61 61 61 16 16 16 166 166 166 210 210 210 31 31 31 31 31 31 210 210 210 166 166 166 16 16 16 61 61 61 240 240 240 106 106 106 16 16 16 106 106 106 240 240 240 61 61 61 16 16 16 166 166 166 210 210 210 31 31 31 31 31 31 210 210 210 166 166 166 16 16 16 61 61 61 240 240 240 106 106 106 16 16 16 106 106 106 240 240 240 61 61 61 12 12 12 
176 176 176 61 61 61 16 16 16 166 166 166 210 210 210 31 31 31 31 31 31 210 210 210 166 166 166 16 16 16 61 61 61 240 240 240 106 106 106 16 16 16 106 106 106 240 240 240 61 61 61 16 16 16 166 166 166 210 210 210 31 31 31 31 31 31 210 210 210 166 166 166 16 16 16 61 61 61 240 240 240 106 106 106 16 16 16 106 106 106 240 240 240 61 61 61 16 16 16 166 166 166 210 210 210 31 31 31 31 31 31 210 210 210 166 166 166 16 16 16 61 61 61 240 240 240 106 106 106 16 16 16 106 106 106 240 240 240 61 61 61 16 16 16 166 166 166 210 210 210 31 31 31 31 31 31 210 210 210 166 166 166 16 16 16 61 61 61 240 240 240 106 106 106 16 16 16 106 106 106 240 240 240 61 61 61 16 16 16 102 102 102 
27 27 27 16 16 16 166 166 166 210 210 210 31 31 31 31 31 31 210 210 210 166 166 166 16 16 16 61 61 61 240 240 240 106 106 106 16 16 16 106 106 106 240 240 240 61 61 61 16 16 16 166 166 166 210 210 210 31 31 31 31 31 31 210 210 210 166 166 166 16 16 16 61 61 61 240 240 240 106 106 106 16 16 16 106 106 106 240 240 240 61 61 61 16 16 16 166 166 166 210 210 210 31 31 31 31 31 31 210 210 210 166 166 166 16 16 16 61 61 61 240 240 240 106 106 106 16 16 16 106 106 106 240 240 240 61 61 61 16 16 16 166 166 166 210 210 210 31 31 31 31 31 31 210 210 210 166 166 166 16 16 16 61 61 61 240 240 240 106 106 106 16 16 16 106 106 106 240 240 240 61 61 61 16 16 16 166 166 166 176 176 176 
12 12 12 166 166 166 210 210 210 31 31 31 31 31 31 210 210 210 166 166 166 16 16 16 61 61 61 240 240 240 106 106 106 16 16 16 106 106 106 240 240 240 61 61 61 16 16 16 166 166 166 210 210 210 31 31 31 31 31 31 210 210 210 166 166 166 16 16 16 61 61 61 240 240 240 106 106 106 16 16 16 106 106 106 240 240 240 61 61 61 16 16 16 166 166 166 210 210 210 31 31 31 31 31 31 210 210 210 166 166 166 16 16 16 61 61 61 240 240 240 106 106 106 16 16 16 106 106 106 240 240 240 61 61 61 16 16 16 166 166 166 210 210 210 31 31 31 31 31 31 210 210 210 166 166 166 16 16 16 61 61 61 240 240 240 106 106 106 16 16 16 106 106 106 240 240 240 61 61 61 16 16 16 166 166 166 210 210 210 27 27 27 
147 147 147 210 210 210 31 31 31 31 31 31 210 210 210 166 166 166 16 16 16 61 61 61 240 240 240 106 106 106 16 16 16 106 106 106 240 240 240 61 61 61 16 16 16 166 166 166 210 210 210 31 31 31 31 31 31 210 210 210 166 166 166 16 16 16 61 61 61 240 240 240 106 106 106 16 16 16 106 106 106 240 240 240 61 61 61 16 16 16 166 166 166 210 210 210 31 31 31 31 31 31 210 210 210 166 166 166 16 16 16 61 61 61 240 240 240 106 106 106 16 16 16 106 106 106 240 240 240 61 61 61 16 16 16 166 166 166 210 210 210 31 31 31 31 31 31 210 210 210 166 166 166 16 16 16 61 61 61 240 240 240 106 106 106 16 16 16 106 106 106 240 240 240 61 61 61 16 16 16 166 166 166 210 210 210 31 31 31 12 12 12 
147 147 147 31 31 31 31 31 31 210 210 210 166 166 166 16 16 16 61 61 61 240 240 240 106 106 106 16 16 16 106 106 106 240 240 240 61 61 61 16 16 16 166 166 166 210 210 210 31 31 31 31 31 31 210 210 210 166 166 166 16 16 16 61 61 61 240 240 240 106 106 106 16 16 16 106 106 106 240 240 240 61 61 61 16 16 16 166 166 166 210 210 210 31 31 31 31 31 31 210 210 210 166 166 166 16 16 16 61 61 61 240 240 240 106 106 106 16 16 16 106 106 106 240 240 240 61 61 61 16 16 16 166 166 166 210 210 210 31 31 31 31 31 31 210 210 210 166 166 166 16 16 16 61 61 61 240 240 240 106 106 106 16 16 16 106 106 106 240 240 240 61 61 61 16 16 16 166 166 166 210 210 210 31 31 31 31 31 31 147 147 147 
12 12 12 31 31 31 210 210 210 166 166 166 16 16 16 61 61 61 240 240 240 106 106 106 16 16 16 106 106 106 240 240 240 61 61 61 16 16 16 166 166 166 210 210 210 31 31 31 31 31 31 210 210 210 166 166 166 16 16 16 61 61 61 240 240 240 106 106 106 16 16 16 106 106 106 240 240 240 61 61 61 16 16 16 166 166 166 210 210 210 31 31 31 31 31 31 210 210 210 166 166 166 16 16 16 61 61 61 240 240 240 106 106 106 16 16 16 106 106 106 240 240 240 61 61 61 16 16 16 166 166 166 210 210 210 31 31 31 31 31 31 210 210 210 166 166 166 16 16 16 61 61 61 240 240 240 106 106 106 16 16 16 106 106 106 240 240 240 61 61 61 16 16 16 166 166 166 210 210 210 31 31 31 31 31 31 210 210 210 147 147 147 
27 27 27 210 210 210 166 166 166 16 16 16 61 61 61 240 240 240 106 106 106 16 16 16 106 106 106 240 240 240 61 61 61 16 16 16 166 166 166 210 210 210 31 31 31 31 31 31 210 210 210 166 166 166 16 16 16 61 61 61 240 240 240 106 106 106 16 16 16 106 106 106 240 240 240 61 61 61 16 16 16 166 166 166 210 210 210 31 31 31 31 31 31 210 210 210 166 166 166 16 16 16 61 61 61 240 240 240 106 106 106 16 16 16 106 106 106 240 240 240 61 61 61 16 16 16 166 166 166 210 210 210 31 31 31 31 31 31 210 210 210 166 166 166 16 16 16 61 61 61 240 240 240 106 106 106 16 16 16 106 106 106 240 240 240 61 61 61 16 16 16 166 166 166 210 210 210 31 31 31 31 31 31 210 210 210 166 166 166 12 12 12 
176 176 176 166 166 166 16 16 16 61 61 61 240 240 240 106 106 106 16 16 16 106 106 106 240 240 240 61 61 61 16 16 16 166 166 166 210 210 210 31 31 31 31 31 31 210 210 210 166 166 166 16 16 16 61 61 61 240 240 240 106 106 106 16 16 16 106 106 106 240 240 240 61 61 61 16 16 16 166 166 166 210 210 210 31 31 31 31 31 31 210 210 210 166 166 166 16 16 16 61 61 61 240 240 240 106 106 106 16 16 16 106 106 106 240 240 240 61 61 61 16 16 16 166 166 166 210 210 210 31 31 31 31 31 31 210 210 210 166 166 166 16 16 16 61 61 61 240 240 240 106 106 106 16 16 16 106 106 106 240 240 240 61 61 61 16 16 16 166 166 166 210 210 210 31 31 31 31 31 31 210 210 210 166 166 166 16 16 16 27 27 27 
102 102 102 16 16 16 61 61 61 240 240 240 106 106 106 16 16 16 106 106 106 240 240 240 61 61 61 16 16 16 166 166 166 210 210 210 31 31 31 31 31 31 210 210 210 166 166 166 16 16 16 61 61 61 240 240 240 106 106 106 16 16 16 106 106 106 240 240 240 61 61 61 16 16 16 166 166 166 210 210 210 31 31 31 31 31 31 210 210 210 166 166 166 16 16 16 61 61 61 240 240 240 106 106 106 16 16 16 106 106 106 240 240 240 61 61 61 16 16 16 166 166 166 210 210 210 31 31 31 31 31 31 210 210 210 166 166 166 16 16 16 61 61 61 240 240 240 106 106 106 16 16 16 106 106 106 240 240 240 61 61 61 16 16 16 166 166 166 210 210 210 31 31 31 31 31 31 210 210 210 166 166 166 16 16 16 61 61 61 176 176 176 
12 12 12 61 61 61 240 240 240 106 106 106 16 16 16 106 106 106 240 240 240 61 61 61 16 16 16 166 166 166 210 210 210 31 31 31 31 31 31 210 210 210 166 166 166 16 16 16 61 61 61 240 240 240 106 106 106 16 16 16 106 106 106 240 240 240 61 61 61 16 16 16 166 166 166 210 210 210 31 31 31 31 31 31 210 210 210 166 166 166 16 16 16 61 61 61 240 240 240 106 106 106 16 16 16 106 106 106 240 240 240 61 61 61 16 16 16 166 166 166 210 210 210 31 31 31 31 31 31 210 210 210 166 166 166 16 16 16 61 61 61 240 240 240 106 106 106 16 16 16 106 106 106 240 240 240 61 61 61 16 16 16 166 166 166 210 210 210 31 31 31 31 31 31 210 210 210 166 166 166 16 16 16 61 61 61 240 240 240 102 102 102 
57 57 57 240 240 240 106 106 106 16 16 16 106 106 106 240 240 240 61 61 61 16 16 16 166 166 166 210 210 210 31 31 31 31 31 31 210 210 210 166 166 166 16 16 16 61 61 61 240 240 240 106 106 106 16 16 16 106 106 106 240 240 240 61 61 61 16 16 16 166 166 166 210 210 210 31 31 31 31 31 31 210 210 210 166 166 166 16 16 16 61 61 61 240 240 240 106 106 106 16 16 16 106 106 106 240 240 240 61 61 61 16 16 16 166 166 166 210 210 210 31 31 31 31 31 31 210 210 210 166 166 166 16 16 16 61 61 61 240 240 240 106 106 106 16 16 16 106 106 106 240 240 240 61 61 61 16 16 16 166 166 166 210 210 210 31 31 31 31 31 31 210 210 210 166 166 166 16 16 16 61 61 61 240 240 240 106 106 106 12 12 12 
191 191 191 106 106 106 16 16 16 106 106 106 240 240 240 61 61 61 16 16 16 166 166 166 210 210 210 31 31 31 31 31 31 210 210 210 166 166 166 16 16 16 61 61 61 240 240 240 106 106 106 16 16 16 106 106 106 240 240 240 61 61 61 16 16 16 166 166 166 210 210 210 31 31 31 31 31 31 210 210 210 166 166 166 16 16 16 61 61 61 240 240 240 106 106 106 16 16 16 106 106 106 240 240 240 61 61 61 16 16 16 166 166 166 210 210 210 31 31 31 31 31 31 210 210 210 166 166 166 16 16 16 61 61 61 240 240 240 106 106 106 16 16 16 106 106 106 240 240 240 61 61 61 16 16 16 166 166 166 210 210 210 31 31 31 31 31 31 210 210 210 166 166 166 16 16 16 61 61 61 240 240 240 106 106 106 16 16 16 57 57 57 
57 57 57 16 16 16 106 106 106 240 240 240 61 61 61 16 16 16 166 166 166 210 210 210 31 31 31 31 31 31 210 210 210 166 166 166 16 16 16 61 61 61 240 240 240 106 106 106 16 16 16 106 106 106 240 240 240 61 61 61 16 16 16 166 166 166 210 210 210 31 31 31 31 31 31 210 210 210 166 166 166 16 16 16 61 61 61 240 240 240 106 106 106 16 16 16 106 106 106 240 240 240 61 61 61 16 16 16 166 166 166 210 210 210 31 31 31 31 31 31 210 210 210 166 166 166 16 16 16 61 61 61 240 240 240 106 106 106 16 16 16 106 106 106 240 240 240 61 61 61 16 16 16 166 166 166 210 210 210 31 31 31 31 31 31 210 210 210 166 166 166 16 16 16 61 61 61 240 240 240 106 106 106 16 16 16 106 106 106 191 191 191 
12 12 12 106 106 106 240 240 240 61 61 61 16 16 16 166 166 166 210 210 210 31 31 31 31 31 31 210 210 210 166 166 166 16 16 16 61 61 61 240 240 240 106 106 106 16 16 16 106 106 106 240 240 240 61 61 61 16 16 16 166 166 166 210 210 210 31 31 31 31 31 31 210 210 210 166 166 166 16 16 16 61 61 61 240 240 240 106 106 106 16 16 16 106 106 106 240 240 240 61 61 61 16 16 16 166 166 166 210 210 210 31 31 31 31 31 31 210 210 210 166 166 166 16 16 16 61 61 61 240 240 240 106 106 106 16 16 16 106 106 106 240 240 240 61 61 61 16 16 16 166 166 166 210 210 210 31 31 31 31 31 31 210 210 210 166 166 166 16 16 16 61 61 61 240 240 240 106 106 106 16 16 16 106 106 106 240 240 240 57 57 57 
102 102 102 240 240 240 61 61 61 16 16 16 166 166 166 210 210 210 31 31 31 31 31 31 210 210 210 166 166 166 16 16 16 61 61 61 240 240 240 106 106 106 16 16 16 106 106 106 240 240 240 61 61 61 16 16 16 166 166 166 210 210 210 31 31 31 31 31 31 210 210 210 166 166 166 16 16 16 61 61 61 240 240 240 106 106 106 16 16 16 106 106 106 240 240 240 61 61 61 16 16 16 166 166 166 210 210 210 31 31 31 31 31 31 210 210 210 166 166 166 16 16 16 61 61 61 240 240 240 106 106 106 16 16 16 106 106 106 240 240 240 61 61 61 16 16 16 166 166 166 210 210 210 31 31 31 31 31 31 210 210 210 166 166 166 16 16 16 61 61 61 240 240 240 106 106 106 16 16 16 106 106 106 240 240 240 61 61 61 12 12 12 
176 176 176 61 61 61 16 16 16 166 166 166 210 210 210 31 31 31 31 31 31 210 210 210 166 166 166 16 16 16 61 61 61 240 240 240 106 106 106 16 16 16 106 106 106 240 240 240 61 61 61 16 16 16 166 166 166 210 210 210 31 31 31 31 31 31 210 210 210 166 166 166 16 16 16 61 61 61 240 240 240 106 106 106 16 16 16 106 106 106 240 240 240 61 61 61 16 16 16 166 166 166 210 210 210 31 31 31 31 31 31 210 210 210 166 166 166 16 16 16 61 61 61 240 240 240 106 106 106 16 16 16 106 106 106 240 240 240 61 61 61 16 16 16 166 166 166 210 210 210 31 31 31 31 31 31 210 210 210 166 166 166 16 16 16 61 61 61 240 240 240 106 106 106 16 16 16 106 106 106 240 240 240 61 61 61 16 16 16 102 102 102 
27 27 27 16 16 16 166 166 166 210 210 210 31 31 31 31 31 31 210 210 210 166 166 166 16 16 16 61 61 61 240 240 240 106 106 106 16 16 16 106 106 106 240 240 240 61 61 61 16 16 16 166 166 166 210 210 210 31 31 31 31 31 31 210 210 210 166 166 166 16 16 16 61 61 61 240 240 240 106 106 106 16 16 16 106 106 106 240 240 240 61 61 61 16 16 16 166 166 166 210 210 210 31 31 31 31 31 31 210 210 210 166 166 166 16 16 16 61 61 61 240 240 240 106 106 106 16 16 16 106 106 106 240 240 240 61 61 61 16 16 16 166 166 166 210 210 210 31 31 31 31 31 31 210 210 210 166 166 166 16 16 16 61 61 61 240 240 240 106 106 106 16 16 16 106 106 106 240 240 240 61 61 61 16 16 16 166 166 166 176 176 176 
70 70 70 117 117 117 191 191 191 87 87 87 72 72 72 147 147 147 176 176 176 72 72 72 72 72 72 176 176 176 147 147 147 72 72 72 87 87 87 191 191 191 117 117 117 72 72 72 117 117 117 191 191 191 87 87 87 72 72 72 147 147 147 176 176 176 72 72 72 72 72 72 176 176 176 147 147 147 72 72 72 87 87 87 191 191 191 117 117 117 72 72 72 117 117 117 191 191 191 87 87 87 72 72 72 147 147 147 176 176 176 72 72 72 72 72 72 176 176 176 147 147 147 72 72 72 87 87 87 191 191 191 117 117 117 72 72 72 117 117 117 191 191 191 87 87 87 72 72 72 147 147 147 176 176 176 72 72 72 72 72 72 176 176 176 147 147 147 72 72 72 87 87 87 191 191 191 117 117 117 72 72 72 117 117 117 191 191 191 85 85 85 
