P3
5 5
255
255 0 0
255 117 117
255 255 255
255 255 255
168 147 147
255 255 255
255 255 255
255 255 255
255 255 255
119 97 97
255 255 255
255 117 117
255 117 117
255 255 255
119 97 97
255 255 255
108 31 31
255 117 117
255 255 255
168 147 147
255 255 255
108 31 31
207 136 136
255 255 255
255 255 255
