P3
70 70
255
37 37 37
37 37 37
37 37 37
87 87 87
87 87 87
87 87 87
87 87 87
87 87 87
87 87 87
87 87 87
87 87 87
87 87 87
87 87 87
87 87 87
87 87 87
87 87 87
87 87 87
87 87 87
87 87 87
87 87 87
87 87 87
87 87 87
87 87 87
87 87 87
87 87 87
87 87 87
87 87 87
87 87 87
87 87 87
87 87 87
87 87 87
87 87 87
87 87 87
87 87 87
87 87 87
87 87 87
87 87 87
87 87 87
87 87 87
87 87 87
87 87 87
87 87 87
87 87 87
87 87 87
87 87 87
87 87 87
87 87 87
87 87 87
87 87 87
87 87 87
87 87 87
87 87 87
87 87 87
87 87 87
87 87 87
87 87 87
87 87 87
87 87 87
87 87 87
87 87 87
87 87 87
87 87 87
87 87 87
87 87 87
87 87 87
87 87 87
87 87 87
87 87 87
87 87 87
87 87 87
37 37 37
37 37 37
87 87 87
87 87 87
87 87 87
87 87 87
87 87 87
87 87 87
87 87 87
87 87 87
87 87 87
87 87 87
87 87 87
87 87 87
87 87 87
87 87 87
87 87 87
87 87 87
87 87 87
87 87 87
87 87 87
87 87 87
87 87 87
87 87 87
87 87 87
87 87 87
87 87 87
87 87 87
87 87 87
87 87 87
87 87 87
87 87 87
87 87 87
87 87 87
87 87 87
87 87 87
87 87 87
87 87 87
87 87 87
87 87 87
87 87 87
87 87 87
87 87 87
87 87 87
87 87 87
87 87 87
87 87 87
87 87 87
87 87 87
87 87 87
87 87 87
87 87 87
87 87 87
87 87 87
87 87 87
87 87 87
87 87 87
87 87 87
87 87 87
87 87 87
87 87 87
87 87 87
87 87 87
87 87 87
87 87 87
87 87 87
87 87 87
87 87 87
87 87 87
87 87 87
87 87 87
87 87 87
87 87 87
87 87 87
87 87 87
87 87 87
87 87 87
87 87 87
87 87 87
87 87 87
87 87 87
87 87 87
87 87 87
87 87 87
87 87 87
87 87 87
87 87 87
87 87 87
87 87 87
87 87 87
87 87 87
87 87 87
87 87 87
87 87 87
87 87 87
87 87 87
87 87 87
87 87 87
87 87 87
87 87 87
87 87 87
87 87 87
87 87 87
87 87 87
87 87 87
87 87 87
87 87 87
87 87 87
87 87 87
87 87 87
87 87 87
87 87 87
87 87 87
87 87 87
87 87 87
87 87 87
87 87 87
87 87 87
87 87 87
87 87 87
87 87 87
87 87 87
87 87 87
87 87 87
87 87 87
87 87 87
87 87 87
87 87 87
87 87 87
87 87 87
87 87 87
87 87 87
87 87 87
87 87 87
87 87 87
87 87 87
87 87 87
87 87 87
87 87 87
87 87 87
87 87 87
87 87 87
87 87 87
87 87 87
87 87 87
87 87 87
87 87 87
87 87 87
87 87 87
87 87 87
87 87 87
87 87 87
87 87 87
87 87 87
87 87 87
87 87 87
87 87 87
87 87 87
87 87 87
87 87 87
87 87 87
87 87 87
87 87 87
87 87 87
87 87 87
87 87 87
87 87 87
87 87 87
87 87 87
87 87 87
87 87 87
87 87 87
87 87 87
87 87 87
87 87 87
87 87 87
87 87 87
87 87 87
87 87 87
87 87 87
87 87 87
87 87 87
87 87 87
87 87 87
87 87 87
87 87 87
87 87 87
87 87 87
87 87 87
87 87 87
87 87 87
87 87 87
87 87 87
87 87 87
87 87 87
87 87 87
87 87 87
87 87 87
87 87 87
87 87 87
87 87 87
87 87 87
87 87 87
87 87 87
87 87 87
87 87 87
87 87 87
87 87 87
87 87 87
87 87 87
87 87 87
87 87 87
87 87 87
87 87 87
87 87 87
87 87 87
87 87 87
87 87 87
87 87 87
87 87 87
87 87 87
87 87 87
87 87 87
87 87 87
87 87 87
87 87 87
87 87 87
87 87 87
87 87 87
87 87 87
87 87 87
87 87 87
87 87 87
87 87 87
87 87 87
87 87 87
87 87 87
87 87 87
87 87 87
87 87 87
87 87 87
87 87 87
87 87 87
87 87 87
87 87 87
37 37 37
87 87 87
87 87 87
87 87 87
87 87 87
87 87 87
87 87 87
87 87 87
87 87 87
87 87 87
87 87 87
87 87 87
87 87 87
87 87 87
87 87 87
87 87 87
87 87 87
87 87 87
87 87 87
87 87 87
87 87 87
87 87 87
87 87 87
87 87 87
87 87 87
87 87 87
87 87 87
87 87 87
87 87 87
87 87 87
87 87 87
87 87 87
87 87 87
87 87 87
87 87 87
87 87 87
87 87 87
87 87 87
87 87 87
87 87 87
87 87 87
87 87 87
87 87 87
87 87 87
87 87 87
87 87 87
87 87 87
87 87 87
87 87 87
87 87 87
87 87 87
87 87 87
87 87 87
87 87 87
87 87 87
87 87 87
87 87 87
87 87 87
87 87 87
87 87 87
87 87 87
87 87 87
87 87 87
87 87 87
87 87 87
87 87 87
87 87 87
87 87 87
37 37 37
37 37 37
37 37 37
37 37 37
87 87 87
87 87 87
87 87 87
87 87 87
87 87 87
87 87 87
87 87 87
87 87 87
87 87 87
87 87 87
87 87 87
87 87 87
87 87 87
87 87 87
87 87 87
87 87 87
87 87 87
87 87 87
87 87 87
87 87 87
87 87 87
87 87 87
87 87 87
87 87 87
87 87 87
87 87 87
87 87 87
87 87 87
87 87 87
87 87 87
87 87 87
87 87 87
87 87 87
87 87 87
87 87 87
87 87 87
87 87 87
87 87 87
87 87 87
87 87 87
87 87 87
87 87 87
87 87 87
87 87 87
87 87 87
87 87 87
87 87 87
87 87 87
87 87 87
87 87 87
87 87 87
87 87 87
87 87 87
87 87 87
87 87 87
87 87 87
87 87 87
87 87 87
87 87 87
87 87 87
87 87 87
87 87 87
87 87 87
87 87 87
37 37 37
37 37 37
37 37 37
37 37 37
37 37 37
37 37 37
37 37 37
87 87 87
87 87 87
87 87 87
87 87 87
87 87 87
87 87 87
87 87 87
87 87 87
87 87 87
87 87 87
87 87 87
87 87 87
87 87 87
87 87 87
87 87 87
87 87 87
87 87 87
87 87 87
87 87 87
87 87 87
87 87 87
87 87 87
87 87 87
87 87 87
87 87 87
87 87 87
87 87 87
87 87 87
87 87 87
87 87 87
87 87 87
87 87 87
87 87 87
87 87 87
87 87 87
87 87 87
87 87 87
87 87 87
87 87 87
87 87 87
87 87 87
87 87 87
87 87 87
87 87 87
87 87 87
87 87 87
87 87 87
87 87 87
87 87 87
87 87 87
87 87 87
87 87 87
87 87 87
87 87 87
87 87 87
87 87 87
87 87 87
87 87 87
87 87 87
87 87 87
87 87 87
87 87 87
37 37 37
37 37 37
37 37 37
37 37 37
37 37 37
37 37 37
37 37 37
37 37 37
37 37 37
37 37 37
87 87 87
87 87 87
87 87 87
87 87 87
87 87 87
87 87 87
87 87 87
87 87 87
87 87 87
87 87 87
87 87 87
87 87 87
87 87 87
87 87 87
87 87 87
87 87 87
87 87 87
87 87 87
87 87 87
87 87 87
87 87 87
87 87 87
87 87 87
87 87 87
87 87 87
87 87 87
87 87 87
87 87 87
87 87 87
87 87 87
87 87 87
87 87 87
87 87 87
87 87 87
87 87 87
87 87 87
87 87 87
87 87 87
87 87 87
87 87 87
87 87 87
87 87 87
87 87 87
87 87 87
87 87 87
87 87 87
87 87 87
87 87 87
87 87 87
87 87 87
87 87 87
87 87 87
87 87 87
87 87 87
87 87 87
87 87 87
87 87 87
87 87 87
87 87 87
37 37 37
37 37 37
37 37 37
37 37 37
37 37 37
37 37 37
37 37 37
37 37 37
37 37 37
37 37 37
37 37 37
37 37 37
87 87 87
87 87 87
87 87 87
87 87 87
87 87 87
87 87 87
87 87 87
87 87 87
87 87 87
87 87 87
87 87 87
87 87 87
87 87 87
87 87 87
87 87 87
87 87 87
87 87 87
87 87 87
87 87 87
87 87 87
87 87 87
87 87 87
87 87 87
87 87 87
87 87 87
87 87 87
87 87 87
87 87 87
87 87 87
87 87 87
87 87 87
87 87 87
87 87 87
87 87 87
87 87 87
87 87 87
87 87 87
87 87 87
87 87 87
87 87 87
87 87 87
87 87 87
87 87 87
87 87 87
87 87 87
87 87 87
87 87 87
87 87 87
87 87 87
87 87 87
87 87 87
87 87 87
87 87 87
87 87 87
87 87 87
87 87 87
37 37 37
37 37 37
37 37 37
37 37 37
37 37 37
37 37 37
37 37 37
37 37 37
37 37 37
37 37 37
37 37 37
37 37 37
37 37 37
37 37 37
37 37 37
37 37 37
87 87 87
87 87 87
87 87 87
87 87 87
87 87 87
87 87 87
87 87 87
87 87 87
87 87 87
87 87 87
87 87 87
87 87 87
87 87 87
87 87 87
87 87 87
87 87 87
87 87 87
87 87 87
87 87 87
87 87 87
87 87 87
87 87 87
87 87 87
87 87 87
87 87 87
87 87 87
87 87 87
87 87 87
87 87 87
87 87 87
87 87 87
87 87 87
87 87 87
87 87 87
87 87 87
87 87 87
87 87 87
87 87 87
87 87 87
87 87 87
87 87 87
87 87 87
87 87 87
87 87 87
87 87 87
87 87 87
87 87 87
87 87 87
87 87 87
87 87 87
87 87 87
87 87 87
87 87 87
37 37 37
37 37 37
37 37 37
37 37 37
37 37 37
37 37 37
37 37 37
37 37 37
37 37 37
37 37 37
87 87 87
37 37 37
37 37 37
37 37 37
37 37 37
37 37 37
37 37 37
37 37 37
87 87 87
87 87 87
87 87 87
87 87 87
87 87 87
87 87 87
87 87 87
87 87 87
87 87 87
87 87 87
87 87 87
87 87 87
87 87 87
87 87 87
87 87 87
87 87 87
87 87 87
87 87 87
87 87 87
87 87 87
87 87 87
87 87 87
87 87 87
87 87 87
87 87 87
87 87 87
87 87 87
87 87 87
87 87 87
87 87 87
87 87 87
87 87 87
87 87 87
87 87 87
87 87 87
87 87 87
87 87 87
87 87 87
87 87 87
87 87 87
87 87 87
87 87 87
87 87 87
87 87 87
87 87 87
87 87 87
87 87 87
87 87 87
87 87 87
87 87 87
87 87 87
37 37 37
37 37 37
37 37 37
37 37 37
37 37 37
37 37 37
37 37 37
37 37 37
37 37 37
37 37 37
37 37 37
87 87 87
87 87 87
37 37 37
37 37 37
37 37 37
37 37 37
37 37 37
37 37 37
37 37 37
87 87 87
87 87 87
87 87 87
87 87 87
87 87 87
87 87 87
87 87 87
87 87 87
87 87 87
87 87 87
87 87 87
87 87 87
87 87 87
87 87 87
87 87 87
87 87 87
87 87 87
87 87 87
87 87 87
87 87 87
87 87 87
87 87 87
87 87 87
87 87 87
87 87 87
87 87 87
87 87 87
87 87 87
87 87 87
87 87 87
87 87 87
87 87 87
87 87 87
87 87 87
87 87 87
87 87 87
87 87 87
87 87 87
87 87 87
87 87 87
87 87 87
87 87 87
87 87 87
87 87 87
87 87 87
87 87 87
87 87 87
87 87 87
37 37 37
37 37 37
37 37 37
37 37 37
37 37 37
37 37 37
37 37 37
37 37 37
37 37 37
37 37 37
37 37 37
37 37 37
37 37 37
87 87 87
87 87 87
87 87 87
87 87 87
37 37 37
37 37 37
37 37 37
37 37 37
37 37 37
37 37 37
87 87 87
87 87 87
87 87 87
87 87 87
87 87 87
87 87 87
87 87 87
87 87 87
87 87 87
87 87 87
87 87 87
87 87 87
87 87 87
87 87 87
87 87 87
87 87 87
87 87 87
87 87 87
87 87 87
87 87 87
87 87 87
87 87 87
87 87 87
87 87 87
87 87 87
87 87 87
87 87 87
87 87 87
87 87 87
87 87 87
87 87 87
87 87 87
87 87 87
87 87 87
87 87 87
87 87 87
87 87 87
87 87 87
87 87 87
87 87 87
87 87 87
87 87 87
87 87 87
87 87 87
87 87 87
37 37 37
37 37 37
37 37 37
37 37 37
37 37 37
37 37 37
37 37 37
37 37 37
37 37 37
37 37 37
37 37 37
37 37 37
37 37 37
37 37 37
37 37 37
87 87 87
87 87 87
87 87 87
87 87 87
87 87 87
37 37 37
37 37 37
37 37 37
37 37 37
37 37 37
37 37 37
37 37 37
87 87 87
87 87 87
87 87 87
87 87 87
87 87 87
87 87 87
87 87 87
87 87 87
87 87 87
87 87 87
87 87 87
87 87 87
87 87 87
87 87 87
87 87 87
87 87 87
87 87 87
87 87 87
87 87 87
87 87 87
87 87 87
87 87 87
87 87 87
87 87 87
87 87 87
87 87 87
87 87 87
87 87 87
87 87 87
87 87 87
87 87 87
87 87 87
87 87 87
87 87 87
87 87 87
87 87 87
87 87 87
87 87 87
87 87 87
87 87 87
87 87 87
87 87 87
37 37 37
37 37 37
37 37 37
37 37 37
37 37 37
37 37 37
37 37 37
37 37 37
37 37 37
37 37 37
37 37 37
37 37 37
37 37 37
37 37 37
37 37 37
37 37 37
87 87 87
87 87 87
87 87 87
87 87 87
37 37 37
37 37 37
37 37 37
37 37 37
37 37 37
37 37 37
37 37 37
37 37 37
37 37 37
87 87 87
87 87 87
87 87 87
87 87 87
87 87 87
87 87 87
87 87 87
87 87 87
87 87 87
87 87 87
87 87 87
87 87 87
87 87 87
87 87 87
87 87 87
87 87 87
87 87 87
87 87 87
87 87 87
87 87 87
87 87 87
87 87 87
87 87 87
87 87 87
87 87 87
87 87 87
87 87 87
87 87 87
87 87 87
87 87 87
87 87 87
87 87 87
87 87 87
87 87 87
87 87 87
87 87 87
87 87 87
87 87 87
87 87 87
87 87 87
37 37 37
37 37 37
37 37 37
37 37 37
37 37 37
37 37 37
37 37 37
37 37 37
37 37 37
37 37 37
37 37 37
37 37 37
37 37 37
37 37 37
37 37 37
37 37 37
37 37 37
37 37 37
87 87 87
87 87 87
87 87 87
37 37 37
37 37 37
37 37 37
37 37 37
37 37 37
37 37 37
87 87 87
37 37 37
87 87 87
37 37 37
37 37 37
87 87 87
87 87 87
87 87 87
87 87 87
87 87 87
87 87 87
87 87 87
87 87 87
87 87 87
87 87 87
87 87 87
87 87 87
87 87 87
87 87 87
87 87 87
87 87 87
87 87 87
87 87 87
87 87 87
87 87 87
87 87 87
87 87 87
87 87 87
87 87 87
87 87 87
87 87 87
87 87 87
87 87 87
87 87 87
87 87 87
87 87 87
87 87 87
87 87 87
87 87 87
87 87 87
87 87 87
87 87 87
37 37 37
37 37 37
37 37 37
37 37 37
37 37 37
37 37 37
37 37 37
37 37 37
37 37 37
37 37 37
37 37 37
37 37 37
37 37 37
37 37 37
37 37 37
37 37 37
37 37 37
37 37 37
37 37 37
37 37 37
37 37 37
87 87 87
37 37 37
37 37 37
37 37 37
37 37 37
37 37 37
37 37 37
37 37 37
87 87 87
37 37 37
37 37 37
37 37 37
37 37 37
87 87 87
87 87 87
87 87 87
87 87 87
87 87 87
87 87 87
87 87 87
87 87 87
87 87 87
87 87 87
87 87 87
87 87 87
87 87 87
87 87 87
87 87 87
87 87 87
87 87 87
87 87 87
87 87 87
87 87 87
87 87 87
87 87 87
87 87 87
87 87 87
87 87 87
87 87 87
87 87 87
87 87 87
87 87 87
87 87 87
87 87 87
87 87 87
87 87 87
87 87 87
37 37 37
37 37 37
37 37 37
37 37 37
37 37 37
37 37 37
37 37 37
37 37 37
37 37 37
37 37 37
37 37 37
37 37 37
37 37 37
37 37 37
37 37 37
37 37 37
37 37 37
37 37 37
37 37 37
37 37 37
37 37 37
37 37 37
37 37 37
37 37 37
37 37 37
37 37 37
37 37 37
37 37 37
37 37 37
37 37 37
37 37 37
37 37 37
37 37 37
37 37 37
37 37 37
37 37 37
37 37 37
37 37 37
87 87 87
87 87 87
87 87 87
87 87 87
87 87 87
87 87 87
87 87 87
87 87 87
87 87 87
87 87 87
87 87 87
87 87 87
87 87 87
87 87 87
87 87 87
87 87 87
87 87 87
87 87 87
87 87 87
87 87 87
87 87 87
87 87 87
87 87 87
87 87 87
87 87 87
87 87 87
87 87 87
87 87 87
87 87 87
37 37 37
37 37 37
37 37 37
37 37 37
37 37 37
37 37 37
37 37 37
37 37 37
37 37 37
37 37 37
37 37 37
37 37 37
37 37 37
37 37 37
37 37 37
37 37 37
37 37 37
37 37 37
37 37 37
37 37 37
37 37 37
37 37 37
37 37 37
37 37 37
37 37 37
37 37 37
37 37 37
37 37 37
37 37 37
37 37 37
37 37 37
37 37 37
37 37 37
37 37 37
37 37 37
37 37 37
37 37 37
37 37 37
37 37 37
37 37 37
37 37 37
37 37 37
37 37 37
87 87 87
87 87 87
87 87 87
87 87 87
87 87 87
87 87 87
87 87 87
87 87 87
87 87 87
87 87 87
87 87 87
87 87 87
87 87 87
87 87 87
87 87 87
87 87 87
87 87 87
87 87 87
87 87 87
87 87 87
87 87 87
87 87 87
87 87 87
87 87 87
87 87 87
87 87 87
37 37 37
37 37 37
37 37 37
37 37 37
37 37 37
37 37 37
37 37 37
37 37 37
37 37 37
37 37 37
37 37 37
37 37 37
37 37 37
37 37 37
37 37 37
37 37 37
37 37 37
37 37 37
37 37 37
37 37 37
37 37 37
37 37 37
37 37 37
37 37 37
37 37 37
37 37 37
37 37 37
37 37 37
37 37 37
37 37 37
37 37 37
37 37 37
37 37 37
37 37 37
37 37 37
37 37 37
37 37 37
37 37 37
37 37 37
37 37 37
37 37 37
37 37 37
37 37 37
37 37 37
37 37 37
87 87 87
87 87 87
87 87 87
87 87 87
87 87 87
87 87 87
87 87 87
87 87 87
87 87 87
87 87 87
87 87 87
87 87 87
87 87 87
87 87 87
87 87 87
87 87 87
87 87 87
87 87 87
87 87 87
87 87 87
87 87 87
87 87 87
87 87 87
87 87 87
87 87 87
37 37 37
37 37 37
37 37 37
37 37 37
37 37 37
37 37 37
37 37 37
37 37 37
37 37 37
37 37 37
37 37 37
37 37 37
37 37 37
37 37 37
37 37 37
37 37 37
37 37 37
37 37 37
37 37 37
37 37 37
37 37 37
37 37 37
37 37 37
37 37 37
37 37 37
37 37 37
37 37 37
37 37 37
37 37 37
37 37 37
37 37 37
37 37 37
37 37 37
37 37 37
37 37 37
37 37 37
37 37 37
37 37 37
37 37 37
37 37 37
37 37 37
37 37 37
37 37 37
37 37 37
37 37 37
37 37 37
87 87 87
87 87 87
87 87 87
87 87 87
87 87 87
87 87 87
87 87 87
87 87 87
87 87 87
87 87 87
87 87 87
87 87 87
241 241 241
241 241 241
241 241 241
241 241 241
241 241 241
241 241 241
241 241 241
241 241 241
241 241 241
241 241 241
241 241 241
87 87 87
37 37 37
37 37 37
37 37 37
37 37 37
37 37 37
37 37 37
37 37 37
37 37 37
37 37 37
37 37 37
37 37 37
37 37 37
37 37 37
37 37 37
37 37 37
37 37 37
37 37 37
37 37 37
37 37 37
37 37 37
37 37 37
37 37 37
37 37 37
37 37 37
37 37 37
37 37 37
37 37 37
37 37 37
37 37 37
37 37 37
37 37 37
37 37 37
37 37 37
37 37 37
37 37 37
37 37 37
37 37 37
37 37 37
37 37 37
37 37 37
37 37 37
37 37 37
37 37 37
37 37 37
37 37 37
37 37 37
87 87 87
87 87 87
87 87 87
87 87 87
87 87 87
87 87 87
87 87 87
87 87 87
87 87 87
87 87 87
87 87 87
87 87 87
241 241 241
241 241 241
241 241 241
241 241 241
241 241 241
241 241 241
241 241 241
241 241 241
241 241 241
241 241 241
241 241 241
241 241 241
37 37 37
37 37 37
37 37 37
37 37 37
37 37 37
37 37 37
37 37 37
37 37 37
37 37 37
37 37 37
37 37 37
37 37 37
37 37 37
37 37 37
37 37 37
37 37 37
37 37 37
37 37 37
37 37 37
37 37 37
37 37 37
37 37 37
37 37 37
37 37 37
37 37 37
37 37 37
37 37 37
37 37 37
37 37 37
37 37 37
37 37 37
37 37 37
37 37 37
37 37 37
37 37 37
37 37 37
37 37 37
37 37 37
37 37 37
37 37 37
37 37 37
37 37 37
37 37 37
37 37 37
37 37 37
37 37 37
87 87 87
87 87 87
87 87 87
87 87 87
87 87 87
87 87 87
87 87 87
87 87 87
87 87 87
87 87 87
87 87 87
87 87 87
241 241 241
241 241 241
241 241 241
241 241 241
241 241 241
241 241 241
241 241 241
241 241 241
241 241 241
241 241 241
241 241 241
241 241 241
37 37 37
37 37 37
37 37 37
37 37 37
37 37 37
37 37 37
37 37 37
37 37 37
37 37 37
37 37 37
37 37 37
37 37 37
37 37 37
37 37 37
37 37 37
37 37 37
37 37 37
37 37 37
37 37 37
37 37 37
37 37 37
37 37 37
37 37 37
37 37 37
37 37 37
37 37 37
37 37 37
37 37 37
37 37 37
37 37 37
37 37 37
37 37 37
37 37 37
37 37 37
37 37 37
37 37 37
37 37 37
37 37 37
37 37 37
37 37 37
37 37 37
37 37 37
37 37 37
37 37 37
37 37 37
37 37 37
87 87 87
87 87 87
87 87 87
87 87 87
87 87 87
87 87 87
87 87 87
87 87 87
87 87 87
87 87 87
87 87 87
87 87 87
241 241 241
241 241 241
241 241 241
241 241 241
241 241 241
241 241 241
241 241 241
241 241 241
241 241 241
241 241 241
241 241 241
241 241 241
37 37 37
37 37 37
37 37 37
37 37 37
37 37 37
37 37 37
37 37 37
37 37 37
37 37 37
37 37 37
37 37 37
37 37 37
37 37 37
37 37 37
37 37 37
37 37 37
37 37 37
37 37 37
37 37 37
37 37 37
37 37 37
37 37 37
37 37 37
37 37 37
37 37 37
37 37 37
37 37 37
37 37 37
37 37 37
37 37 37
37 37 37
37 37 37
37 37 37
37 37 37
37 37 37
37 37 37
37 37 37
37 37 37
37 37 37
37 37 37
37 37 37
37 37 37
37 37 37
37 37 37
37 37 37
37 37 37
87 87 87
87 87 87
87 87 87
87 87 87
87 87 87
87 87 87
87 87 87
87 87 87
87 87 87
87 87 87
87 87 87
87 87 87
241 241 241
241 241 241
241 241 241
241 241 241
241 241 241
241 241 241
241 241 241
241 241 241
241 241 241
241 241 241
241 241 241
241 241 241
37 37 37
37 37 37
37 37 37
37 37 37
37 37 37
37 37 37
87 87 87
37 37 37
37 37 37
37 37 37
37 37 37
37 37 37
37 37 37
37 37 37
37 37 37
37 37 37
37 37 37
37 37 37
37 37 37
37 37 37
37 37 37
37 37 37
37 37 37
37 37 37
37 37 37
37 37 37
37 37 37
37 37 37
37 37 37
37 37 37
37 37 37
37 37 37
37 37 37
37 37 37
37 37 37
37 37 37
37 37 37
37 37 37
37 37 37
37 37 37
37 37 37
37 37 37
37 37 37
37 37 37
37 37 37
37 37 37
87 87 87
87 87 87
87 87 87
87 87 87
87 87 87
87 87 87
87 87 87
87 87 87
87 87 87
87 87 87
87 87 87
87 87 87
241 241 241
241 241 241
241 241 241
241 241 241
241 241 241
241 241 241
241 241 241
241 241 241
241 241 241
241 241 241
241 241 241
241 241 241
37 37 37
37 37 37
37 37 37
37 37 37
87 87 87
37 37 37
37 37 37
37 37 37
37 37 37
37 37 37
37 37 37
37 37 37
37 37 37
37 37 37
37 37 37
37 37 37
37 37 37
37 37 37
37 37 37
37 37 37
37 37 37
37 37 37
37 37 37
37 37 37
87 87 87
87 87 87
37 37 37
37 37 37
37 37 37
37 37 37
37 37 37
37 37 37
37 37 37
37 37 37
37 37 37
37 37 37
37 37 37
37 37 37
37 37 37
37 37 37
37 37 37
37 37 37
37 37 37
37 37 37
37 37 37
37 37 37
87 87 87
87 87 87
87 87 87
87 87 87
87 87 87
87 87 87
87 87 87
87 87 87
87 87 87
87 87 87
87 87 87
87 87 87
241 241 241
241 241 241
241 241 241
241 241 241
241 241 241
241 241 241
241 241 241
241 241 241
241 241 241
241 241 241
241 241 241
241 241 241
37 37 37
37 37 37
37 37 37
37 37 37
37 37 37
37 37 37
87 87 87
37 37 37
37 37 37
37 37 37
37 37 37
37 37 37
37 37 37
37 37 37
37 37 37
37 37 37
37 37 37
37 37 37
37 37 37
37 37 37
37 37 37
37 37 37
37 37 37
37 37 37
87 87 87
87 87 87
87 87 87
37 37 37
37 37 37
37 37 37
37 37 37
37 37 37
37 37 37
37 37 37
37 37 37
37 37 37
37 37 37
37 37 37
37 37 37
37 37 37
37 37 37
37 37 37
37 37 37
37 37 37
37 37 37
37 37 37
87 87 87
87 87 87
87 87 87
87 87 87
87 87 87
87 87 87
87 87 87
87 87 87
87 87 87
87 87 87
87 87 87
87 87 87
241 241 241
241 241 241
241 241 241
241 241 241
241 241 241
241 241 241
241 241 241
241 241 241
241 241 241
241 241 241
241 241 241
241 241 241
37 37 37
37 37 37
37 37 37
87 87 87
87 87 87
37 37 37
37 37 37
37 37 37
37 37 37
37 37 37
37 37 37
37 37 37
37 37 37
37 37 37
37 37 37
37 37 37
37 37 37
37 37 37
37 37 37
37 37 37
37 37 37
37 37 37
37 37 37
37 37 37
87 87 87
87 87 87
87 87 87
87 87 87
87 87 87
37 37 37
37 37 37
37 37 37
37 37 37
37 37 37
37 37 37
37 37 37
37 37 37
37 37 37
37 37 37
37 37 37
37 37 37
37 37 37
37 37 37
37 37 37
37 37 37
37 37 37
87 87 87
87 87 87
87 87 87
87 87 87
87 87 87
87 87 87
87 87 87
87 87 87
87 87 87
87 87 87
87 87 87
87 87 87
241 241 241
241 241 241
241 241 241
241 241 241
241 241 241
241 241 241
241 241 241
241 241 241
241 241 241
241 241 241
241 241 241
241 241 241
37 37 37
37 37 37
37 37 37
37 37 37
37 37 37
87 87 87
37 37 37
37 37 37
37 37 37
37 37 37
37 37 37
37 37 37
37 37 37
37 37 37
37 37 37
37 37 37
37 37 37
37 37 37
37 37 37
37 37 37
37 37 37
37 37 37
37 37 37
37 37 37
87 87 87
87 87 87
87 87 87
87 87 87
87 87 87
37 37 37
37 37 37
37 37 37
37 37 37
37 37 37
37 37 37
37 37 37
37 37 37
37 37 37
37 37 37
37 37 37
37 37 37
37 37 37
37 37 37
37 37 37
37 37 37
60 60 60
87 87 87
87 87 87
87 87 87
87 87 87
87 87 87
87 87 87
87 87 87
87 87 87
87 87 87
87 87 87
87 87 87
87 87 87
241 241 241
241 241 241
241 241 241
241 241 241
241 241 241
241 241 241
241 241 241
241 241 241
241 241 241
241 241 241
241 241 241
87 87 87
37 37 37
37 37 37
37 37 37
87 87 87
37 37 37
37 37 37
37 37 37
37 37 37
37 37 37
37 37 37
37 37 37
37 37 37
37 37 37
37 37 37
37 37 37
37 37 37
37 37 37
37 37 37
37 37 37
37 37 37
37 37 37
37 37 37
37 37 37
37 37 37
87 87 87
87 87 87
87 87 87
87 87 87
87 87 87
37 37 37
37 37 37
37 37 37
37 37 37
37 37 37
37 37 37
37 37 37
37 37 37
37 37 37
37 37 37
37 37 37
37 37 37
37 37 37
37 37 37
60 60 60
60 60 60
60 60 60
37 37 37
241 241 241
241 241 241
87 87 87
87 87 87
87 87 87
87 87 87
87 87 87
87 87 87
87 87 87
87 87 87
87 87 87
241 241 241
241 241 241
241 241 241
241 241 241
241 241 241
241 241 241
241 241 241
241 241 241
241 241 241
241 241 241
241 241 241
37 37 37
37 37 37
37 37 37
37 37 37
37 37 37
37 37 37
37 37 37
37 37 37
37 37 37
37 37 37
37 37 37
37 37 37
37 37 37
37 37 37
37 37 37
37 37 37
37 37 37
37 37 37
37 37 37
37 37 37
37 37 37
37 37 37
37 37 37
37 37 37
37 37 37
87 87 87
87 87 87
87 87 87
87 87 87
87 87 87
37 37 37
37 37 37
37 37 37
37 37 37
37 37 37
37 37 37
37 37 37
37 37 37
37 37 37
37 37 37
37 37 37
37 37 37
37 37 37
37 37 37
60 60 60
60 60 60
60 60 60
60 60 60
87 87 87
241 241 241
241 241 241
241 241 241
241 241 241
241 241 241
87 87 87
87 87 87
87 87 87
87 87 87
87 87 87
241 241 241
241 241 241
241 241 241
241 241 241
241 241 241
241 241 241
241 241 241
241 241 241
241 241 241
241 241 241
241 241 241
37 37 37
37 37 37
37 37 37
37 37 37
37 37 37
37 37 37
37 37 37
37 37 37
37 37 37
37 37 37
37 37 37
37 37 37
37 37 37
37 37 37
37 37 37
37 37 37
37 37 37
37 37 37
37 37 37
37 37 37
37 37 37
37 37 37
37 37 37
37 37 37
37 37 37
37 37 37
87 87 87
87 87 87
87 87 87
87 87 87
37 37 37
37 37 37
37 37 37
37 37 37
37 37 37
37 37 37
37 37 37
37 37 37
37 37 37
37 37 37
37 37 37
37 37 37
37 37 37
37 37 37
60 60 60
60 60 60
60 60 60
60 60 60
87 87 87
241 241 241
241 241 241
241 241 241
241 241 241
241 241 241
241 241 241
241 241 241
241 241 241
87 87 87
87 87 87
241 241 241
241 241 241
241 241 241
241 241 241
241 241 241
241 241 241
241 241 241
241 241 241
241 241 241
241 241 241
37 37 37
37 37 37
37 37 37
37 37 37
37 37 37
37 37 37
37 37 37
37 37 37
37 37 37
37 37 37
37 37 37
37 37 37
37 37 37
37 37 37
37 37 37
37 37 37
37 37 37
37 37 37
37 37 37
37 37 37
37 37 37
37 37 37
37 37 37
37 37 37
37 37 37
37 37 37
37 37 37
37 37 37
37 37 37
87 87 87
241 241 241
37 37 37
37 37 37
37 37 37
37 37 37
37 37 37
37 37 37
37 37 37
37 37 37
37 37 37
37 37 37
37 37 37
37 37 37
37 37 37
37 37 37
60 60 60
60 60 60
60 60 60
60 60 60
60 60 60
241 241 241
241 241 241
241 241 241
241 241 241
241 241 241
241 241 241
241 241 241
241 241 241
241 241 241
241 241 241
241 241 241
241 241 241
241 241 241
241 241 241
241 241 241
241 241 241
241 241 241
241 241 241
241 241 241
241 241 241
37 37 37
37 37 37
37 37 37
37 37 37
37 37 37
37 37 37
37 37 37
37 37 37
37 37 37
37 37 37
37 37 37
37 37 37
37 37 37
37 37 37
37 37 37
37 37 37
37 37 37
37 37 37
37 37 37
37 37 37
37 37 37
37 37 37
37 37 37
37 37 37
37 37 37
37 37 37
37 37 37
37 37 37
37 37 37
37 37 37
87 87 87
37 37 37
37 37 37
37 37 37
37 37 37
37 37 37
37 37 37
60 60 60
60 60 60
60 60 60
60 60 60
37 37 37
37 37 37
37 37 37
60 60 60
60 60 60
60 60 60
60 60 60
60 60 60
60 60 60
241 241 241
241 241 241
241 241 241
241 241 241
241 241 241
241 241 241
241 241 241
241 241 241
241 241 241
241 241 241
241 241 241
241 241 241
241 241 241
241 241 241
241 241 241
241 241 241
241 241 241
241 241 241
241 241 241
241 241 241
37 37 37
37 37 37
37 37 37
37 37 37
37 37 37
37 37 37
37 37 37
37 37 37
241 241 241
37 37 37
37 37 37
37 37 37
37 37 37
37 37 37
37 37 37
37 37 37
37 37 37
37 37 37
37 37 37
37 37 37
37 37 37
37 37 37
37 37 37
37 37 37
37 37 37
37 37 37
37 37 37
37 37 37
37 37 37
37 37 37
37 37 37
37 37 37
37 37 37
37 37 37
37 37 37
37 37 37
37 37 37
60 60 60
60 60 60
60 60 60
60 60 60
37 37 37
37 37 37
37 37 37
60 60 60
60 60 60
60 60 60
60 60 60
60 60 60
60 60 60
241 241 241
241 241 241
241 241 241
241 241 241
241 241 241
241 241 241
241 241 241
241 241 241
241 241 241
241 241 241
241 241 241
241 241 241
241 241 241
241 241 241
241 241 241
241 241 241
241 241 241
241 241 241
241 241 241
241 241 241
37 37 37
37 37 37
37 37 37
37 37 37
37 37 37
37 37 37
37 37 37
37 37 37
37 37 37
37 37 37
37 37 37
37 37 37
37 37 37
37 37 37
37 37 37
37 37 37
37 37 37
37 37 37
37 37 37
37 37 37
37 37 37
37 37 37
37 37 37
37 37 37
37 37 37
37 37 37
37 37 37
37 37 37
37 37 37
37 37 37
60 60 60
60 60 60
60 60 60
60 60 60
37 37 37
37 37 37
37 37 37
60 60 60
60 60 60
60 60 60
60 60 60
60 60 60
87 87 87
87 87 87
87 87 87
60 60 60
60 60 60
60 60 60
60 60 60
60 60 60
241 241 241
241 241 241
241 241 241
241 241 241
241 241 241
241 241 241
241 241 241
241 241 241
241 241 241
241 241 241
241 241 241
241 241 241
241 241 241
241 241 241
241 241 241
241 241 241
241 241 241
241 241 241
241 241 241
241 241 241
37 37 37
37 37 37
37 37 37
37 37 37
37 37 37
37 37 37
37 37 37
37 37 37
37 37 37
37 37 37
37 37 37
37 37 37
37 37 37
37 37 37
37 37 37
37 37 37
37 37 37
37 37 37
37 37 37
37 37 37
37 37 37
37 37 37
37 37 37
37 37 37
37 37 37
37 37 37
37 37 37
60 60 60
60 60 60
60 60 60
60 60 60
60 60 60
60 60 60
60 60 60
60 60 60
60 60 60
60 60 60
60 60 60
60 60 60
60 60 60
60 60 60
60 60 60
87 87 87
60 60 60
87 87 87
60 60 60
60 60 60
60 60 60
60 60 60
60 60 60
241 241 241
241 241 241
241 241 241
241 241 241
241 241 241
241 241 241
241 241 241
241 241 241
241 241 241
241 241 241
241 241 241
241 241 241
241 241 241
241 241 241
241 241 241
241 241 241
241 241 241
241 241 241
241 241 241
241 241 241
241 241 241
37 37 37
241 241 241
241 241 241
241 241 241
37 37 37
37 37 37
37 37 37
37 37 37
37 37 37
37 37 37
37 37 37
37 37 37
37 37 37
37 37 37
37 37 37
37 37 37
37 37 37
37 37 37
37 37 37
37 37 37
37 37 37
37 37 37
37 37 37
37 37 37
37 37 37
37 37 37
60 60 60
60 60 60
60 60 60
60 60 60
60 60 60
60 60 60
60 60 60
60 60 60
60 60 60
60 60 60
60 60 60
60 60 60
60 60 60
60 60 60
60 60 60
87 87 87
60 60 60
87 87 87
60 60 60
60 60 60
60 60 60
60 60 60
60 60 60
241 241 241
241 241 241
241 241 241
241 241 241
241 241 241
241 241 241
241 241 241
241 241 241
241 241 241
241 241 241
241 241 241
241 241 241
241 241 241
241 241 241
241 241 241
241 241 241
241 241 241
241 241 241
241 241 241
241 241 241
241 241 241
241 241 241
241 241 241
241 241 241
37 37 37
37 37 37
37 37 37
37 37 37
37 37 37
37 37 37
37 37 37
37 37 37
37 37 37
37 37 37
37 37 37
37 37 37
37 37 37
37 37 37
37 37 37
37 37 37
37 37 37
37 37 37
37 37 37
37 37 37
60 60 60
60 60 60
60 60 60
60 60 60
60 60 60
60 60 60
60 60 60
60 60 60
60 60 60
60 60 60
60 60 60
60 60 60
60 60 60
60 60 60
60 60 60
60 60 60
60 60 60
60 60 60
87 87 87
60 60 60
87 87 87
60 60 60
60 60 60
60 60 60
60 60 60
87 87 87
241 241 241
241 241 241
241 241 241
241 241 241
241 241 241
241 241 241
241 241 241
241 241 241
241 241 241
241 241 241
241 241 241
241 241 241
241 241 241
241 241 241
241 241 241
241 241 241
241 241 241
241 241 241
241 241 241
241 241 241
241 241 241
241 241 241
241 241 241
241 241 241
37 37 37
37 37 37
37 37 37
37 37 37
37 37 37
37 37 37
37 37 37
37 37 37
37 37 37
37 37 37
37 37 37
37 37 37
37 37 37
37 37 37
37 37 37
37 37 37
37 37 37
37 37 37
60 60 60
60 60 60
60 60 60
60 60 60
60 60 60
60 60 60
60 60 60
60 60 60
60 60 60
60 60 60
60 60 60
60 60 60
60 60 60
60 60 60
60 60 60
60 60 60
60 60 60
60 60 60
60 60 60
60 60 60
87 87 87
87 87 87
60 60 60
60 60 60
60 60 60
60 60 60
60 60 60
60 60 60
241 241 241
241 241 241
241 241 241
241 241 241
241 241 241
241 241 241
241 241 241
241 241 241
241 241 241
241 241 241
241 241 241
241 241 241
241 241 241
241 241 241
241 241 241
241 241 241
241 241 241
241 241 241
241 241 241
241 241 241
241 241 241
241 241 241
241 241 241
241 241 241
37 37 37
37 37 37
37 37 37
37 37 37
37 37 37
37 37 37
37 37 37
37 37 37
37 37 37
37 37 37
37 37 37
37 37 37
37 37 37
37 37 37
37 37 37
37 37 37
37 37 37
37 37 37
37 37 37
60 60 60
60 60 60
60 60 60
60 60 60
60 60 60
60 60 60
60 60 60
60 60 60
60 60 60
60 60 60
60 60 60
60 60 60
60 60 60
60 60 60
60 60 60
60 60 60
60 60 60
60 60 60
60 60 60
60 60 60
60 60 60
60 60 60
60 60 60
60 60 60
60 60 60
60 60 60
60 60 60
241 241 241
241 241 241
241 241 241
241 241 241
241 241 241
241 241 241
241 241 241
241 241 241
241 241 241
241 241 241
241 241 241
241 241 241
241 241 241
241 241 241
241 241 241
241 241 241
241 241 241
241 241 241
241 241 241
241 241 241
241 241 241
241 241 241
241 241 241
241 241 241
241 241 241
37 37 37
37 37 37
37 37 37
37 37 37
37 37 37
37 37 37
37 37 37
37 37 37
37 37 37
37 37 37
37 37 37
37 37 37
37 37 37
37 37 37
37 37 37
37 37 37
37 37 37
37 37 37
37 37 37
60 60 60
60 60 60
60 60 60
60 60 60
60 60 60
60 60 60
60 60 60
60 60 60
60 60 60
60 60 60
60 60 60
60 60 60
60 60 60
60 60 60
60 60 60
60 60 60
60 60 60
60 60 60
60 60 60
60 60 60
60 60 60
60 60 60
60 60 60
60 60 60
60 60 60
60 60 60
241 241 241
241 241 241
241 241 241
241 241 241
241 241 241
241 241 241
241 241 241
241 241 241
241 241 241
241 241 241
241 241 241
241 241 241
241 241 241
241 241 241
241 241 241
241 241 241
241 241 241
241 241 241
241 241 241
241 241 241
241 241 241
241 241 241
37 37 37
37 37 37
37 37 37
37 37 37
37 37 37
37 37 37
37 37 37
37 37 37
37 37 37
37 37 37
37 37 37
37 37 37
37 37 37
37 37 37
37 37 37
37 37 37
37 37 37
37 37 37
37 37 37
37 37 37
60 60 60
60 60 60
60 60 60
60 60 60
60 60 60
60 60 60
60 60 60
60 60 60
60 60 60
60 60 60
60 60 60
60 60 60
60 60 60
60 60 60
60 60 60
60 60 60
60 60 60
60 60 60
60 60 60
60 60 60
60 60 60
60 60 60
60 60 60
60 60 60
60 60 60
60 60 60
60 60 60
60 60 60
241 241 241
241 241 241
241 241 241
241 241 241
241 241 241
241 241 241
241 241 241
241 241 241
241 241 241
241 241 241
241 241 241
241 241 241
241 241 241
241 241 241
241 241 241
241 241 241
241 241 241
241 241 241
241 241 241
37 37 37
37 37 37
37 37 37
37 37 37
37 37 37
37 37 37
37 37 37
37 37 37
37 37 37
37 37 37
37 37 37
37 37 37
37 37 37
60 60 60
60 60 60
60 60 60
60 60 60
60 60 60
60 60 60
60 60 60
60 60 60
60 60 60
60 60 60
60 60 60
60 60 60
60 60 60
60 60 60
60 60 60
60 60 60
60 60 60
60 60 60
60 60 60
60 60 60
60 60 60
60 60 60
60 60 60
60 60 60
60 60 60
60 60 60
60 60 60
60 60 60
60 60 60
60 60 60
60 60 60
60 60 60
60 60 60
60 60 60
60 60 60
60 60 60
60 60 60
60 60 60
60 60 60
241 241 241
241 241 241
241 241 241
241 241 241
241 241 241
241 241 241
241 241 241
241 241 241
241 241 241
241 241 241
241 241 241
241 241 241
241 241 241
241 241 241
241 241 241
241 241 241
241 241 241
241 241 241
241 241 241
37 37 37
37 37 37
37 37 37
37 37 37
37 37 37
37 37 37
37 37 37
37 37 37
37 37 37
37 37 37
37 37 37
60 60 60
60 60 60
60 60 60
60 60 60
60 60 60
60 60 60
60 60 60
60 60 60
60 60 60
60 60 60
60 60 60
60 60 60
60 60 60
60 60 60
60 60 60
60 60 60
60 60 60
60 60 60
60 60 60
60 60 60
60 60 60
60 60 60
60 60 60
60 60 60
60 60 60
60 60 60
60 60 60
60 60 60
60 60 60
60 60 60
60 60 60
60 60 60
60 60 60
60 60 60
60 60 60
60 60 60
60 60 60
60 60 60
60 60 60
60 60 60
241 241 241
241 241 241
241 241 241
241 241 241
241 241 241
241 241 241
241 241 241
241 241 241
241 241 241
241 241 241
241 241 241
241 241 241
241 241 241
241 241 241
241 241 241
241 241 241
241 241 241
241 241 241
241 241 241
241 241 241
241 241 241
37 37 37
37 37 37
37 37 37
37 37 37
37 37 37
37 37 37
37 37 37
37 37 37
37 37 37
37 37 37
60 60 60
60 60 60
60 60 60
60 60 60
60 60 60
60 60 60
60 60 60
60 60 60
60 60 60
60 60 60
60 60 60
60 60 60
60 60 60
60 60 60
60 60 60
60 60 60
60 60 60
60 60 60
60 60 60
60 60 60
60 60 60
60 60 60
60 60 60
60 60 60
60 60 60
60 60 60
60 60 60
60 60 60
60 60 60
60 60 60
60 60 60
60 60 60
60 60 60
60 60 60
60 60 60
60 60 60
60 60 60
241 241 241
241 241 241
241 241 241
241 241 241
241 241 241
241 241 241
241 241 241
241 241 241
241 241 241
241 241 241
241 241 241
241 241 241
241 241 241
241 241 241
241 241 241
241 241 241
241 241 241
241 241 241
241 241 241
241 241 241
241 241 241
241 241 241
241 241 241
241 241 241
241 241 241
37 37 37
37 37 37
37 37 37
37 37 37
37 37 37
37 37 37
37 37 37
60 60 60
60 60 60
60 60 60
60 60 60
60 60 60
60 60 60
60 60 60
60 60 60
60 60 60
60 60 60
60 60 60
60 60 60
60 60 60
60 60 60
60 60 60
60 60 60
60 60 60
60 60 60
60 60 60
60 60 60
60 60 60
60 60 60
60 60 60
60 60 60
60 60 60
60 60 60
60 60 60
60 60 60
60 60 60
60 60 60
60 60 60
60 60 60
60 60 60
60 60 60
60 60 60
241 241 241
241 241 241
241 241 241
241 241 241
241 241 241
241 241 241
241 241 241
241 241 241
241 241 241
241 241 241
241 241 241
241 241 241
241 241 241
241 241 241
241 241 241
241 241 241
241 241 241
241 241 241
241 241 241
241 241 241
241 241 241
241 241 241
241 241 241
241 241 241
241 241 241
241 241 241
241 241 241
241 241 241
241 241 241
241 241 241
241 241 241
37 37 37
60 60 60
60 60 60
60 60 60
60 60 60
60 60 60
60 60 60
60 60 60
60 60 60
60 60 60
60 60 60
60 60 60
60 60 60
60 60 60
60 60 60
60 60 60
60 60 60
60 60 60
60 60 60
60 60 60
60 60 60
60 60 60
60 60 60
60 60 60
60 60 60
60 60 60
60 60 60
60 60 60
60 60 60
60 60 60
60 60 60
60 60 60
60 60 60
60 60 60
60 60 60
60 60 60
60 60 60
241 241 241
241 241 241
241 241 241
241 241 241
241 241 241
241 241 241
241 241 241
241 241 241
241 241 241
241 241 241
241 241 241
241 241 241
241 241 241
241 241 241
241 241 241
241 241 241
241 241 241
241 241 241
241 241 241
241 241 241
241 241 241
241 241 241
241 241 241
241 241 241
241 241 241
241 241 241
241 241 241
241 241 241
241 241 241
241 241 241
241 241 241
241 241 241
241 241 241
241 241 241
241 241 241
241 241 241
37 37 37
60 60 60
60 60 60
60 60 60
60 60 60
60 60 60
60 60 60
60 60 60
60 60 60
60 60 60
60 60 60
60 60 60
60 60 60
60 60 60
60 60 60
60 60 60
60 60 60
60 60 60
60 60 60
60 60 60
60 60 60
60 60 60
60 60 60
60 60 60
60 60 60
60 60 60
60 60 60
60 60 60
60 60 60
60 60 60
60 60 60
241 241 241
241 241 241
241 241 241
241 241 241
241 241 241
241 241 241
241 241 241
241 241 241
241 241 241
241 241 241
241 241 241
241 241 241
241 241 241
241 241 241
241 241 241
241 241 241
241 241 241
241 241 241
241 241 241
241 241 241
241 241 241
241 241 241
241 241 241
241 241 241
241 241 241
241 241 241
241 241 241
241 241 241
241 241 241
241 241 241
241 241 241
241 241 241
241 241 241
241 241 241
241 241 241
241 241 241
241 241 241
241 241 241
241 241 241
241 241 241
241 241 241
241 241 241
60 60 60
60 60 60
60 60 60
60 60 60
60 60 60
60 60 60
60 60 60
60 60 60
60 60 60
60 60 60
60 60 60
60 60 60
60 60 60
60 60 60
60 60 60
60 60 60
60 60 60
60 60 60
60 60 60
60 60 60
60 60 60
60 60 60
60 60 60
60 60 60
60 60 60
241 241 241
241 241 241
241 241 241
241 241 241
241 241 241
241 241 241
241 241 241
241 241 241
241 241 241
241 241 241
241 241 241
241 241 241
241 241 241
241 241 241
241 241 241
241 241 241
241 241 241
241 241 241
241 241 241
241 241 241
241 241 241
241 241 241
241 241 241
241 241 241
241 241 241
241 241 241
241 241 241
241 241 241
241 241 241
241 241 241
241 241 241
241 241 241
241 241 241
241 241 241
241 241 241
241 241 241
241 241 241
241 241 241
241 241 241
241 241 241
241 241 241
241 241 241
241 241 241
241 241 241
241 241 241
241 241 241
241 241 241
60 60 60
60 60 60
60 60 60
60 60 60
60 60 60
60 60 60
60 60 60
60 60 60
60 60 60
60 60 60
60 60 60
60 60 60
60 60 60
60 60 60
60 60 60
60 60 60
60 60 60
60 60 60
60 60 60
60 60 60
60 60 60
241 241 241
241 241 241
241 241 241
241 241 241
241 241 241
241 241 241
241 241 241
241 241 241
241 241 241
241 241 241
241 241 241
241 241 241
241 241 241
241 241 241
241 241 241
241 241 241
241 241 241
241 241 241
241 241 241
241 241 241
241 241 241
241 241 241
241 241 241
241 241 241
241 241 241
241 241 241
241 241 241
241 241 241
241 241 241
241 241 241
241 241 241
241 241 241
241 241 241
241 241 241
241 241 241
241 241 241
241 241 241
241 241 241
241 241 241
241 241 241
241 241 241
241 241 241
241 241 241
241 241 241
241 241 241
241 241 241
241 241 241
241 241 241
241 241 241
241 241 241
60 60 60
60 60 60
60 60 60
60 60 60
60 60 60
60 60 60
60 60 60
60 60 60
60 60 60
60 60 60
60 60 60
60 60 60
60 60 60
60 60 60
60 60 60
60 60 60
60 60 60
60 60 60
241 241 241
241 241 241
241 241 241
241 241 241
241 241 241
241 241 241
241 241 241
241 241 241
241 241 241
241 241 241
241 241 241
241 241 241
241 241 241
241 241 241
241 241 241
241 241 241
241 241 241
241 241 241
241 241 241
241 241 241
241 241 241
241 241 241
241 241 241
241 241 241
241 241 241
241 241 241
241 241 241
241 241 241
241 241 241
241 241 241
241 241 241
241 241 241
241 241 241
241 241 241
241 241 241
241 241 241
241 241 241
241 241 241
241 241 241
241 241 241
241 241 241
241 241 241
241 241 241
241 241 241
241 241 241
241 241 241
241 241 241
241 241 241
241 241 241
241 241 241
241 241 241
241 241 241
241 241 241
241 241 241
241 241 241
60 60 60
60 60 60
60 60 60
241 241 241
241 241 241
241 241 241
60 60 60
60 60 60
60 60 60
60 60 60
60 60 60
60 60 60
60 60 60
241 241 241
241 241 241
241 241 241
241 241 241
241 241 241
241 241 241
241 241 241
241 241 241
241 241 241
241 241 241
241 241 241
241 241 241
241 241 241
241 241 241
241 241 241
241 241 241
241 241 241
241 241 241
241 241 241
241 241 241
241 241 241
241 241 241
241 241 241
241 241 241
241 241 241
241 241 241
241 241 241
241 241 241
241 241 241
241 241 241
241 241 241
241 241 241
241 241 241
241 241 241
241 241 241
241 241 241
241 241 241
241 241 241
241 241 241
241 241 241
241 241 241
241 241 241
241 241 241
241 241 241
241 241 241
241 241 241
241 241 241
241 241 241
241 241 241
241 241 241
241 241 241
241 241 241
241 241 241
241 241 241
241 241 241
241 241 241
241 241 241
241 241 241
241 241 241
241 241 241
241 241 241
241 241 241
241 241 241
241 241 241
241 241 241
241 241 241
241 241 241
241 241 241
241 241 241
241 241 241
241 241 241
241 241 241
241 241 241
241 241 241
241 241 241
241 241 241
241 241 241
241 241 241
241 241 241
241 241 241
241 241 241
241 241 241
241 241 241
241 241 241
241 241 241
241 241 241
241 241 241
241 241 241
241 241 241
241 241 241
241 241 241
241 241 241
241 241 241
241 241 241
241 241 241
241 241 241
241 241 241
241 241 241
241 241 241
241 241 241
241 241 241
241 241 241
241 241 241
241 241 241
241 241 241
241 241 241
241 241 241
241 241 241
241 241 241
241 241 241
241 241 241
241 241 241
241 241 241
241 241 241
241 241 241
241 241 241
241 241 241
241 241 241
241 241 241
241 241 241
241 241 241
241 241 241
241 241 241
241 241 241
241 241 241
241 241 241
241 241 241
241 241 241
241 241 241
241 241 241
241 241 241
241 241 241
241 241 241
241 241 241
241 241 241
241 241 241
241 241 241
241 241 241
241 241 241
241 241 241
241 241 241
241 241 241
241 241 241
241 241 241
241 241 241
241 241 241
241 241 241
241 241 241
241 241 241
241 241 241
241 241 241
241 241 241
241 241 241
241 241 241
241 241 241
241 241 241
241 241 241
241 241 241
241 241 241
241 241 241
241 241 241
241 241 241
241 241 241
241 241 241
241 241 241
241 241 241
241 241 241
241 241 241
241 241 241
241 241 241
241 241 241
241 241 241
241 241 241
241 241 241
241 241 241
241 241 241
241 241 241
241 241 241
241 241 241
241 241 241
241 241 241
241 241 241
241 241 241
241 241 241
241 241 241
241 241 241
241 241 241
241 241 241
241 241 241
241 241 241
241 241 241
241 241 241
241 241 241
241 241 241
241 241 241
241 241 241
241 241 241
241 241 241
241 241 241
241 241 241
241 241 241
241 241 241
241 241 241
241 241 241
241 241 241
241 241 241
241 241 241
241 241 241
241 241 241
241 241 241
241 241 241
241 241 241
241 241 241
241 241 241
241 241 241
241 241 241
241 241 241
241 241 241
241 241 241
241 241 241
241 241 241
241 241 241
241 241 241
241 241 241
241 241 241
241 241 241
241 241 241
241 241 241
241 241 241
241 241 241
241 241 241
241 241 241
241 241 241
241 241 241
241 241 241
241 241 241
241 241 241
241 241 241
241 241 241
241 241 241
241 241 241
241 241 241
241 241 241
241 241 241
241 241 241
241 241 241
241 241 241
241 241 241
241 241 241
241 241 241
241 241 241
241 241 241
241 241 241
241 241 241
241 241 241
241 241 241
241 241 241
241 241 241
241 241 241
241 241 241
241 241 241
241 241 241
241 241 241
241 241 241
241 241 241
241 241 241
241 241 241
241 241 241
241 241 241
241 241 241
241 241 241
241 241 241
241 241 241
241 241 241
241 241 241
241 241 241
241 241 241
241 241 241
241 241 241
241 241 241
241 241 241
241 241 241
241 241 241
241 241 241
241 241 241
241 241 241
241 241 241
241 241 241
241 241 241
241 241 241
241 241 241
241 241 241
241 241 241
241 241 241
241 241 241
241 241 241
241 241 241
241 241 241
241 241 241
241 241 241
241 241 241
241 241 241
241 241 241
241 241 241
241 241 241
241 241 241
241 241 241
241 241 241
241 241 241
241 241 241
241 241 241
241 241 241
241 241 241
241 241 241
241 241 241
241 241 241
241 241 241
241 241 241
241 241 241
241 241 241
241 241 241
241 241 241
241 241 241
241 241 241
241 241 241
241 241 241
241 241 241
241 241 241
241 241 241
241 241 241
241 241 241
241 241 241
241 241 241
241 241 241
241 241 241
241 241 241
241 241 241
241 241 241
241 241 241
241 241 241
241 241 241
241 241 241
241 241 241
241 241 241
241 241 241
241 241 241
241 241 241
241 241 241
241 241 241
241 241 241
241 241 241
241 241 241
241 241 241
241 241 241
241 241 241
241 241 241
241 241 241
241 241 241
241 241 241
241 241 241
241 241 241
241 241 241
241 241 241
241 241 241
241 241 241
241 241 241
241 241 241
241 241 241
241 241 241
241 241 241
241 241 241
241 241 241
241 241 241
241 241 241
241 241 241
241 241 241
241 241 241
241 241 241
241 241 241
241 241 241
241 241 241
241 241 241
241 241 241
241 241 241
241 241 241
241 241 241
241 241 241
241 241 241
241 241 241
241 241 241
241 241 241
241 241 241
241 241 241
241 241 241
241 241 241
241 241 241
241 241 241
241 241 241
241 241 241
241 241 241
241 241 241
241 241 241
241 241 241
241 241 241
241 241 241
241 241 241
241 241 241
60 60 60
60 60 60
60 60 60
60 60 60
60 60 60
60 60 60
60 60 60
60 60 60
60 60 60
60 60 60
60 60 60
60 60 60
241 241 241
241 241 241
241 241 241
241 241 241
241 241 241
241 241 241
241 241 241
241 241 241
241 241 241
241 241 241
241 241 241
241 241 241
241 241 241
241 241 241
241 241 241
241 241 241
241 241 241
241 241 241
241 241 241
241 241 241
241 241 241
241 241 241
241 241 241
241 241 241
241 241 241
241 241 241
241 241 241
241 241 241
241 241 241
241 241 241
241 241 241
241 241 241
241 241 241
241 241 241
241 241 241
241 241 241
241 241 241
241 241 241
241 241 241
241 241 241
241 241 241
241 241 241
241 241 241
241 241 241
241 241 241
241 241 241
241 241 241
241 241 241
241 241 241
241 241 241
241 241 241
241 241 241
241 241 241
241 241 241
241 241 241
241 241 241
241 241 241
241 241 241
241 241 241
241 241 241
241 241 241
241 241 241
241 241 241
241 241 241
241 241 241
241 241 241
241 241 241
241 241 241
241 241 241
241 241 241
241 241 241
241 241 241
241 241 241
241 241 241
241 241 241
241 241 241
241 241 241
241 241 241
241 241 241
241 241 241
241 241 241
241 241 241
241 241 241
241 241 241
241 241 241
241 241 241
241 241 241
241 241 241
241 241 241
241 241 241
241 241 241
241 241 241
241 241 241
241 241 241
241 241 241
241 241 241
241 241 241
241 241 241
241 241 241
241 241 241
241 241 241
241 241 241
241 241 241
241 241 241
241 241 241
241 241 241
241 241 241
241 241 241
241 241 241
241 241 241
241 241 241
241 241 241
241 241 241
241 241 241
241 241 241
241 241 241
241 241 241
241 241 241
241 241 241
241 241 241
241 241 241
241 241 241
241 241 241
241 241 241
241 241 241
241 241 241
241 241 241
241 241 241
241 241 241
241 241 241
241 241 241
241 241 241
241 241 241
241 241 241
241 241 241
241 241 241
241 241 241
241 241 241
241 241 241
241 241 241
241 241 241
241 241 241
241 241 241
241 241 241
241 241 241
241 241 241
241 241 241
241 241 241
241 241 241
241 241 241
241 241 241
241 241 241
241 241 241
241 241 241
241 241 241
241 241 241
241 241 241
241 241 241
241 241 241
241 241 241
241 241 241
241 241 241
241 241 241
241 241 241
241 241 241
241 241 241
241 241 241
241 241 241
241 241 241
241 241 241
241 241 241
241 241 241
241 241 241
241 241 241
241 241 241
241 241 241
241 241 241
241 241 241
241 241 241
241 241 241
241 241 241
241 241 241
241 241 241
241 241 241
241 241 241
241 241 241
241 241 241
241 241 241
241 241 241
241 241 241
241 241 241
241 241 241
241 241 241
241 241 241
241 241 241
241 241 241
241 241 241
241 241 241
241 241 241
241 241 241
241 241 241
241 241 241
241 241 241
241 241 241
241 241 241
241 241 241
241 241 241
241 241 241
241 241 241
241 241 241
241 241 241
241 241 241
241 241 241
241 241 241
241 241 241
241 241 241
241 241 241
241 241 241
241 241 241
241 241 241
241 241 241
241 241 241
241 241 241
241 241 241
241 241 241
241 241 241
241 241 241
241 241 241
241 241 241
241 241 241
241 241 241
241 241 241
241 241 241
241 241 241
241 241 241
241 241 241
241 241 241
241 241 241
241 241 241
241 241 241
241 241 241
241 241 241
241 241 241
241 241 241
241 241 241
241 241 241
241 241 241
241 241 241
241 241 241
241 241 241
241 241 241
241 241 241
241 241 241
241 241 241
241 241 241
241 241 241
241 241 241
241 241 241
241 241 241
241 241 241
241 241 241
241 241 241
241 241 241
241 241 241
241 241 241
241 241 241
241 241 241
241 241 241
241 241 241
241 241 241
241 241 241
241 241 241
241 241 241
241 241 241
241 241 241
241 241 241
241 241 241
241 241 241
241 241 241
241 241 241
241 241 241
241 241 241
241 241 241
241 241 241
241 241 241
241 241 241
241 241 241
241 241 241
241 241 241
241 241 241
241 241 241
241 241 241
241 241 241
241 241 241
241 241 241
241 241 241
241 241 241
241 241 241
241 241 241
241 241 241
241 241 241
241 241 241
241 241 241
241 241 241
241 241 241
241 241 241
241 241 241
241 241 241
241 241 241
241 241 241
241 241 241
241 241 241
241 241 241
241 241 241
241 241 241
241 241 241
241 241 241
241 241 241
241 241 241
241 241 241
241 241 241
241 241 241
241 241 241
241 241 241
241 241 241
241 241 241
241 241 241
241 241 241
241 241 241
241 241 241
241 241 241
241 241 241
241 241 241
241 241 241
241 241 241
241 241 241
241 241 241
241 241 241
241 241 241
241 241 241
241 241 241
241 241 241
241 241 241
241 241 241
241 241 241
241 241 241
241 241 241
241 241 241
241 241 241
241 241 241
241 241 241
241 241 241
241 241 241
241 241 241
241 241 241
241 241 241
241 241 241
241 241 241
241 241 241
241 241 241
241 241 241
241 241 241
241 241 241
241 241 241
241 241 241
241 241 241
241 241 241
241 241 241
241 241 241
241 241 241
241 241 241
241 241 241
241 241 241
241 241 241
241 241 241
241 241 241
241 241 241
241 241 241
241 241 241
60 60 60
60 60 60
60 60 60
60 60 60
60 60 60
60 60 60
60 60 60
60 60 60
60 60 60
60 60 60
60 60 60
60 60 60
60 60 60
60 60 60
60 60 60
60 60 60
60 60 60
60 60 60
60 60 60
60 60 60
60 60 60
60 60 60
60 60 60
60 60 60
60 60 60
60 60 60
60 60 60
60 60 60
60 60 60
60 60 60
60 60 60
60 60 60
60 60 60
60 60 60
60 60 60
60 60 60
60 60 60
60 60 60
60 60 60
60 60 60
60 60 60
60 60 60
60 60 60
60 60 60
60 60 60
60 60 60
60 60 60
60 60 60
60 60 60
60 60 60
60 60 60
60 60 60
60 60 60
60 60 60
60 60 60
60 60 60
60 60 60
60 60 60
60 60 60
60 60 60
60 60 60
60 60 60
60 60 60
60 60 60
60 60 60
60 60 60
60 60 60
60 60 60
60 60 60
60 60 60
60 60 60
60 60 60
60 60 60
60 60 60
60 60 60
60 60 60
60 60 60
60 60 60
60 60 60
60 60 60
60 60 60
60 60 60
60 60 60
60 60 60
60 60 60
60 60 60
60 60 60
60 60 60
60 60 60
60 60 60
60 60 60
60 60 60
60 60 60
60 60 60
60 60 60
60 60 60
60 60 60
60 60 60
60 60 60
60 60 60
60 60 60
60 60 60
60 60 60
60 60 60
60 60 60
60 60 60
60 60 60
60 60 60
60 60 60
60 60 60
60 60 60
60 60 60
60 60 60
60 60 60
60 60 60
60 60 60
60 60 60
60 60 60
60 60 60
60 60 60
60 60 60
60 60 60
60 60 60
60 60 60
60 60 60
60 60 60
60 60 60
60 60 60
60 60 60
60 60 60
60 60 60
60 60 60
60 60 60
60 60 60
60 60 60
60 60 60
60 60 60
60 60 60
60 60 60
60 60 60
60 60 60
60 60 60
60 60 60
60 60 60
60 60 60
60 60 60
60 60 60
60 60 60
60 60 60
60 60 60
60 60 60
60 60 60
60 60 60
60 60 60
60 60 60
60 60 60
60 60 60
60 60 60
60 60 60
60 60 60
60 60 60
60 60 60
60 60 60
60 60 60
60 60 60
60 60 60
60 60 60
60 60 60
60 60 60
60 60 60
60 60 60
60 60 60
60 60 60
60 60 60
60 60 60
60 60 60
60 60 60
60 60 60
60 60 60
60 60 60
60 60 60
60 60 60
60 60 60
60 60 60
60 60 60
60 60 60
60 60 60
60 60 60
60 60 60
60 60 60
60 60 60
60 60 60
60 60 60
60 60 60
60 60 60
60 60 60
60 60 60
60 60 60
60 60 60
60 60 60
60 60 60
60 60 60
60 60 60
60 60 60
60 60 60
60 60 60
60 60 60
60 60 60
60 60 60
60 60 60
60 60 60
60 60 60
60 60 60
60 60 60
60 60 60
60 60 60
60 60 60
60 60 60
60 60 60
60 60 60
60 60 60
60 60 60
60 60 60
60 60 60
60 60 60
60 60 60
60 60 60
60 60 60
60 60 60
60 60 60
60 60 60
60 60 60
60 60 60
60 60 60
60 60 60
60 60 60
60 60 60
60 60 60
60 60 60
60 60 60
60 60 60
60 60 60
60 60 60
60 60 60
60 60 60
60 60 60
60 60 60
60 60 60
60 60 60
60 60 60
60 60 60
60 60 60
60 60 60
60 60 60
60 60 60
60 60 60
60 60 60
60 60 60
60 60 60
60 60 60
60 60 60
60 60 60
60 60 60
60 60 60
60 60 60
60 60 60
60 60 60
60 60 60
60 60 60
60 60 60
60 60 60
60 60 60
60 60 60
60 60 60
60 60 60
60 60 60
60 60 60
60 60 60
60 60 60
60 60 60
60 60 60
60 60 60
60 60 60
60 60 60
60 60 60
60 60 60
60 60 60
60 60 60
60 60 60
60 60 60
60 60 60
60 60 60
60 60 60
60 60 60
60 60 60
60 60 60
60 60 60
60 60 60
60 60 60
60 60 60
60 60 60
60 60 60
60 60 60
60 60 60
60 60 60
60 60 60
60 60 60
60 60 60
60 60 60
60 60 60
60 60 60
60 60 60
60 60 60
60 60 60
60 60 60
60 60 60
60 60 60
60 60 60
60 60 60
60 60 60
60 60 60
60 60 60
60 60 60
60 60 60
60 60 60
60 60 60
60 60 60
60 60 60
60 60 60
60 60 60
60 60 60
60 60 60
60 60 60
60 60 60
60 60 60
60 60 60
60 60 60
60 60 60
60 60 60
60 60 60
60 60 60
60 60 60
60 60 60
60 60 60
60 60 60
60 60 60
60 60 60
60 60 60
60 60 60
60 60 60
