P3
10 10
255
16 228 31
16 228 31
16 228 31
16 228 31
16 228 31
16 228 31
16 228 31
16 228 31
16 228 31
16 228 31
16 228 31
16 228 31
16 228 31
16 228 31
16 228 31
16 228 31
16 228 31
16 228 31
16 228 31
16 228 31
16 228 31
16 228 31
16 228 31
52 114 67
52 114 67
52 114 67
16 228 31
52 114 67
52 114 67
16 228 31
16 228 31
16 228 31
16 228 31
52 114 67
52 114 67
52 114 67
52 114 67
52 114 67
52 114 67
16 228 31
16 228 31
52 114 67
52 114 67
52 114 67
52 114 67
52 114 67
52 114 67
52 114 67
16 228 31
16 228 31
16 228 31
52 114 67
52 114 67
52 114 67
52 114 67
52 114 67
52 114 67
52 114 67
16 228 31
16 228 31
16 228 31
16 228 31
52 114 67
52 114 67
52 114 67
52 114 67
52 114 67
52 114 67
16 228 31
16 228 31
16 228 31
16 228 31
16 228 31
52 114 67
52 114 67
52 114 67
52 114 67
52 114 67
16 228 31
16 228 31
16 228 31
16 228 31
16 228 31
52 114 67
52 114 67
52 114 67
52 114 67
16 228 31
16 228 31
16 228 31
16 228 31
16 228 31
16 228 31
16 228 31
16 228 31
16 228 31
16 228 31
16 228 31
16 228 31
16 228 31
